<?xml version="1.0" encoding="UTF-8" standalone="no"?>
<!DOCTYPE svg PUBLIC "-//W3C//DTD SVG 1.1//EN" "http://www.w3.org/Graphics/SVG/1.1/DTD/svg11.dtd">
<svg xmlns="http://www.w3.org/2000/svg" version="1.1" viewBox="0.00 0.00 640.00 242.00">
<path fill="#00486c" fill-opacity="0.996" d="
  M 225.33 139.67
  Q 216.93 141.32 212.14 133.63
  Q 179.73 81.53 151.29 34.25
  A 0.37 0.36 -45.7 0 0 150.66 34.26
  Q 96.40 130.74 95.27 132.76
  C 91.67 139.13 85.22 142.34 78.32 138.73
  C 73.88 136.41 75.01 133.00 77.19 129.13
  Q 100.66 87.57 134.74 27.76
  Q 138.36 21.40 145.43 20.25
  Q 148.48 19.75 155.97 20.21
  C 162.20 20.59 165.53 24.07 168.88 29.57
  Q 193.16 69.50 227.06 124.77
  A 0.99 0.99 0.0 0 1 227.10 125.75
  C 225.48 128.85 222.23 134.01 224.64 137.46
  Q 225.65 138.90 225.70 139.03
  A 0.49 0.49 0.0 0 1 225.33 139.67
  Z"
/>
<path fill="#00486c" fill-opacity="0.996" d="
  M 303.38 34.16
  A 0.56 0.56 0.0 0 0 302.65 34.39
  Q 261.20 107.48 248.40 130.30
  Q 244.81 136.69 242.47 138.18
  Q 238.09 140.98 232.78 139.78
  C 228.46 138.81 226.05 135.29 227.97 130.99
  Q 228.84 129.04 231.64 124.13
  Q 261.75 71.21 286.56 27.79
  Q 289.90 21.95 296.21 20.27
  A 3.63 3.43 -51.8 0 1 297.08 20.14
  Q 307.02 19.94 308.00 20.07
  C 314.45 20.93 317.29 23.61 320.84 29.47
  Q 346.44 71.63 383.15 131.02
  Q 384.29 132.85 384.84 134.69
  A 1.75 1.70 -44.2 0 1 384.81 135.73
  Q 384.02 137.88 383.05 138.36
  Q 374.89 142.40 367.65 137.18
  Q 365.85 135.88 362.50 130.51
  Q 345.31 102.97 303.91 34.82
  Q 303.57 34.25 303.38 34.16
  Z"
/>
<path fill="#00486c" fill-opacity="0.996" d="
  M 514.42 125.80
  C 518.23 130.21 517.67 136.91 512.06 139.45
  Q 510.07 140.35 505.78 140.34
  Q 450.86 140.26 437.92 140.37
  Q 428.11 140.46 422.75 138.95
  C 408.12 134.83 396.13 122.57 392.09 108.28
  Q 390.35 102.10 390.43 91.09
  Q 390.54 75.14 390.43 69.29
  Q 390.25 59.83 392.05 53.38
  C 396.24 38.33 407.93 25.70 422.97 21.33
  Q 427.47 20.03 434.42 20.04
  Q 461.86 20.08 509.40 20.07
  A 3.52 3.42 52.9 0 1 510.44 20.23
  C 518.67 22.79 519.15 33.79 510.68 36.23
  A 3.02 2.95 36.2 0 1 509.84 36.35
  L 434.50 36.35
  A 5.01 4.55 36.4 0 0 433.52 36.45
  Q 415.23 40.23 409.94 56.75
  Q 408.50 61.24 408.59 68.37
  Q 408.75 81.73 408.60 92.89
  Q 408.49 101.00 410.24 105.79
  C 414.37 117.18 424.07 123.56 436.26 123.45
  Q 440.74 123.42 507.25 123.40
  Q 512.35 123.40 514.42 125.80
  Z"
/>
<path fill="#009cd4" fill-opacity="0.996" d="
  M 534.38 87.32
  Q 536.73 79.83 544.72 78.91
  C 559.23 77.24 564.44 97.22 551.16 102.35
  C 544.03 105.10 536.14 101.43 534.10 93.96
  A 0.75 0.73 82.2 0 0 533.39 93.41
  L 516.34 93.41
  A 1.04 0.92 48.6 0 1 516.10 93.38
  C 511.78 92.30 509.33 89.48 506.29 86.02
  C 504.93 84.47 501.61 84.18 499.60 84.18
  Q 447.79 84.20 430.01 84.18
  C 421.62 84.17 421.78 73.56 430.00 73.54
  Q 485.89 73.42 497.59 73.64
  Q 500.90 73.71 504.15 75.35
  C 509.99 78.32 512.61 86.16 519.09 87.81
  A 1.26 1.12 -34.3 0 0 519.40 87.85
  L 533.52 87.95
  A 0.90 0.90 0.0 0 0 534.38 87.32
  Z
  M 553.31 90.95
  A 7.04 7.04 0.0 0 0 546.27 83.91
  A 7.04 7.04 0.0 0 0 539.23 90.95
  A 7.04 7.04 0.0 0 0 546.27 97.99
  A 7.04 7.04 0.0 0 0 553.31 90.95
  Z"
/>
<rect fill="#009cd4" fill-opacity="0.996" x="125.29" y="94.62" width="57.46" height="10.66" rx="5.22"/>
<rect fill="#009cd4" fill-opacity="0.996" x="277.47" y="94.64" width="58.50" height="10.66" rx="5.22"/>
<path fill="#009cd4" fill-opacity="0.996" d="
  M 81.87 192.60
  Q 81.87 192.67 81.87 192.69
  A 0.20 0.02 81.8 0 0 81.92 192.85
  L 96.91 207.13
  A 0.05 0.05 0.0 0 1 96.87 207.22
  L 89.97 207.23
  A 0.70 0.69 -22.8 0 1 89.49 207.04
  L 74.63 192.86
  A 0.44 0.30 -80.2 0 1 74.54 192.69
  Q 74.54 192.65 74.54 192.60
  Q 74.54 192.53 74.54 192.50
  A 0.44 0.30 80.4 0 1 74.63 192.32
  L 89.53 178.19
  A 0.70 0.69 22.9 0 1 90.01 178.00
  L 96.91 178.02
  A 0.05 0.05 0.0 0 1 96.95 178.11
  L 81.92 192.35
  A 0.20 0.02 -81.7 0 0 81.88 192.52
  Q 81.87 192.54 81.87 192.60
  Z"
/>
<rect fill="#009cd4" fill-opacity="0.996" x="-2.66" y="-17.96" transform="translate(529.78,194.41) rotate(32.9)" width="5.32" height="35.92" rx="0.41"/>
<path fill="#009cd4" fill-opacity="0.996" d="
  M 564.10 192.60
  Q 564.10 192.66 564.09 192.69
  A 0.44 0.31 80.2 0 1 564.01 192.87
  L 549.13 207.06
  A 0.70 0.69 22.8 0 1 548.65 207.25
  L 541.74 207.25
  A 0.05 0.05 0.0 0 1 541.70 207.16
  L 556.71 192.86
  A 0.20 0.02 -81.9 0 0 556.75 192.70
  Q 556.76 192.67 556.76 192.61
  Q 556.76 192.55 556.75 192.52
  A 0.20 0.02 81.7 0 0 556.71 192.36
  L 541.66 178.10
  A 0.05 0.05 0.0 0 1 541.70 178.01
  L 548.61 177.99
  A 0.70 0.69 -22.9 0 1 549.09 178.18
  L 564.01 192.33
  A 0.44 0.31 -80.4 0 1 564.09 192.51
  Q 564.10 192.54 564.10 192.60
  Z"
/>
<path fill="#000000" d="
  M 289.9808 181.3845
  A 11.49 11.13 -88.4 0 1 300.7857 193.1808
  A 11.49 11.13 -88.4 0 1 289.3392 204.3555
  A 11.49 11.13 -88.4 0 1 278.5343 192.5592
  A 11.49 11.13 -88.4 0 1 289.9808 181.3845
  Z
  M 289.8263 183.3515
  A 9.53 8.85 -89.0 0 0 280.8113 192.7255
  A 9.53 8.85 -89.0 0 0 289.4937 202.4085
  A 9.53 8.85 -89.0 0 0 298.5087 193.0345
  A 9.53 8.85 -89.0 0 0 289.8263 183.3515
  Z"
/>
<path fill="#000000" d="
  M 349.75 192.85
  C 349.75 198.27 353.04 202.48 358.77 202.26
  Q 363.70 202.08 365.78 197.91
  A 0.80 0.79 -76.7 0 1 366.49 197.47
  L 368.05 197.47
  A 0.33 0.33 0.0 0 1 368.36 197.92
  C 365.53 205.15 355.62 206.18 350.63 201.08
  Q 347.38 197.76 347.39 192.85
  Q 347.39 187.94 350.63 184.63
  C 355.63 179.53 365.54 180.57 368.37 187.80
  A 0.33 0.33 0.0 0 1 368.05 188.25
  L 366.49 188.25
  A 0.80 0.79 76.7 0 1 365.79 187.81
  Q 363.71 183.63 358.78 183.45
  C 353.05 183.23 349.75 187.43 349.75 192.85
  Z"
/>
<path fill="#000000" d="
  M 403.19 185.74
  A 1.13 1.12 -65.9 0 1 401.11 186.54
  Q 398.82 182.35 394.09 183.72
  C 391.55 184.46 390.55 187.47 391.97 189.46
  C 394.03 192.33 399.80 191.56 402.07 194.18
  C 406.34 199.10 401.64 204.45 395.98 204.22
  Q 390.36 203.99 388.93 199.05
  A 0.66 0.66 0.0 0 1 389.56 198.20
  L 390.47 198.20
  A 0.96 0.96 0.0 0 1 391.40 198.93
  Q 392.34 202.69 397.30 202.32
  C 401.13 202.04 403.06 197.34 399.38 194.96
  A 2.54 2.14 -13.0 0 0 398.95 194.74
  C 396.86 193.87 391.56 193.02 390.13 190.88
  Q 387.88 187.49 390.36 183.82
  A 2.81 2.70 -0.8 0 1 391.11 183.08
  Q 395.75 180.03 400.54 182.56
  Q 402.73 183.71 403.19 185.74
  Z"
/>
<path fill="#000000" d="
  M 487.90 192.81
  Q 487.90 193.37 487.59 193.65
  A 0.42 0.39 -64.1 0 1 487.32 193.75
  L 479.84 193.75
  A 0.34 0.34 0.0 0 0 479.50 194.09
  L 479.50 201.81
  A 0.31 0.31 0.0 0 0 479.81 202.12
  L 488.28 202.12
  A 0.63 0.63 0.0 0 1 488.91 202.75
  L 488.91 203.34
  A 0.67 0.66 -0.0 0 1 488.24 204.00
  L 477.95 204.00
  A 0.67 0.67 0.0 0 1 477.28 203.35
  Q 477.26 202.75 477.26 192.81
  Q 477.25 182.88 477.27 182.27
  A 0.67 0.67 0.0 0 1 477.94 181.63
  L 488.23 181.62
  A 0.67 0.66 -0.0 0 1 488.90 182.28
  L 488.90 182.87
  A 0.63 0.63 0.0 0 1 488.27 183.50
  L 479.80 183.51
  A 0.31 0.31 0.0 0 0 479.49 183.82
  L 479.50 191.54
  A 0.34 0.34 0.0 0 0 479.84 191.88
  L 487.32 191.87
  A 0.42 0.39 64.1 0 1 487.59 191.97
  Q 487.90 192.26 487.90 192.81
  Z"
/>
<path fill="#000000" d="
  M 127.45 202.26
  C 132.56 202.28 133.42 198.72 133.38 194.17
  Q 133.34 190.20 133.40 182.23
  A 0.48 0.47 -0.0 0 1 133.88 181.76
  L 135.13 181.76
  A 0.51 0.51 0.0 0 1 135.64 182.27
  Q 135.63 189.43 135.60 194.91
  C 135.57 200.44 133.33 204.28 127.45 204.27
  C 121.56 204.25 119.34 200.39 119.34 194.86
  Q 119.35 189.38 119.38 182.22
  A 0.51 0.51 0.0 0 1 119.90 181.71
  L 121.15 181.72
  A 0.48 0.47 0.4 0 1 121.62 182.19
  Q 121.64 190.16 121.57 194.14
  C 121.50 198.68 122.34 202.25 127.45 202.26
  Z"
/>
<path fill="#000000" d="
  M 147.34 190.72
  Q 147.38 190.72 147.42 190.71
  A 0.23 0.06 -5.8 0 0 147.58 190.65
  L 152.63 182.21
  A 0.89 0.89 0.0 0 1 153.39 181.78
  L 154.87 181.78
  A 0.33 0.32 -73.6 0 1 155.14 182.28
  Q 153.67 184.53 148.88 192.45
  Q 148.79 192.61 148.79 192.88
  Q 148.79 193.15 148.88 193.31
  Q 153.61 201.27 155.06 203.53
  A 0.33 0.32 74.0 0 1 154.79 204.03
  L 153.31 204.01
  A 0.89 0.89 0.0 0 1 152.55 203.58
  L 147.57 195.10
  A 0.23 0.06 6.3 0 0 147.41 195.04
  Q 147.37 195.03 147.32 195.03
  Q 147.28 195.03 147.24 195.04
  A 0.23 0.06 -5.8 0 0 147.08 195.10
  L 142.03 203.54
  A 0.89 0.89 0.0 0 1 141.27 203.97
  L 139.79 203.97
  A 0.33 0.32 -73.6 0 1 139.52 203.47
  Q 140.99 201.22 145.78 193.30
  Q 145.88 193.14 145.88 192.87
  Q 145.88 192.60 145.79 192.44
  Q 141.05 184.48 139.60 182.22
  A 0.33 0.32 74.0 0 1 139.87 181.72
  L 141.35 181.74
  A 0.89 0.89 0.0 0 1 142.11 182.17
  L 147.10 190.65
  A 0.23 0.06 6.3 0 0 147.26 190.71
  Q 147.30 190.72 147.34 190.72
  Z"
/>
<rect fill="#000000" x="226.74" y="181.75" width="2.26" height="22.24" rx="0.43"/>
<path fill="#000000" d="
  M 245.13 203.49
  A 0.51 0.51 0.0 0 1 244.62 204.00
  L 243.43 204.00
  A 0.56 0.55 90.0 0 1 242.88 203.44
  L 242.88 182.31
  A 0.59 0.59 0.0 0 1 243.47 181.72
  C 248.38 181.80 256.65 180.32 257.10 187.73
  C 257.53 194.84 250.45 194.71 245.60 194.45
  A 0.45 0.44 -88.2 0 0 245.13 194.90
  L 245.13 203.49
  Z
  M 245.12 184.01
  L 245.12 192.21
  A 0.39 0.39 0.0 0 0 245.51 192.60
  L 250.56 192.60
  A 4.28 4.03 -0.0 0 0 254.84 188.57
  L 254.84 187.65
  A 4.28 4.03 -0.0 0 0 250.56 183.62
  L 245.51 183.62
  A 0.39 0.39 0.0 0 0 245.12 184.01
  Z"
/>
<path fill="#000000" d="
  M 274.76 203.97
  L 273.36 203.97
  A 1.21 1.20 74.8 0 1 272.32 203.37
  L 267.58 195.17
  A 0.87 0.86 75.0 0 0 266.83 194.73
  L 263.77 194.73
  A 0.65 0.64 90.0 0 0 263.13 195.38
  L 263.13 203.51
  A 0.49 0.49 0.0 0 1 262.64 204.00
  L 261.44 204.00
  A 0.57 0.56 -90.0 0 1 260.88 203.43
  L 260.88 182.30
  A 0.55 0.55 0.0 0 1 261.43 181.75
  Q 266.72 181.71 269.44 181.83
  Q 271.98 181.93 274.35 184.83
  A 2.47 2.44 19.1 0 1 274.84 185.82
  Q 276.41 192.30 270.38 194.44
  A 0.45 0.45 0.0 0 0 270.15 195.09
  L 275.02 203.53
  A 0.30 0.29 -14.7 0 1 274.76 203.97
  Z
  M 263.09 184.01
  L 263.15 192.47
  A 0.39 0.39 0.0 0 0 263.54 192.86
  L 268.51 192.83
  A 4.42 4.36 -0.4 0 0 272.90 188.44
  L 272.90 187.92
  A 4.42 4.36 -0.4 0 0 268.45 183.59
  L 263.48 183.62
  A 0.39 0.39 0.0 0 0 263.09 184.01
  Z"
/>
<path fill="#000000" d="
  M 304.77 182.15
  A 0.42 0.42 0.0 0 1 305.19 181.73
  L 312.54 181.75
  A 10.73 10.52 0.1 0 1 323.25 192.29
  L 323.25 193.51
  A 10.73 10.52 0.1 0 1 312.50 204.01
  L 305.15 203.99
  A 0.42 0.42 0.0 0 1 304.73 203.57
  L 304.77 182.15
  Z
  M 307.03 184.07
  L 306.97 201.67
  A 0.47 0.47 0.0 0 0 307.44 202.14
  L 312.47 202.15
  A 8.58 8.44 -89.8 0 0 320.94 193.60
  L 320.94 192.22
  A 8.58 8.44 -89.8 0 0 312.53 183.61
  L 307.50 183.60
  A 0.47 0.47 0.0 0 0 307.03 184.07
  Z"
/>
<path fill="#000000" d="
  M 335.35 204.26
  C 329.47 204.25 327.25 200.39 327.25 194.88
  Q 327.24 189.40 327.27 182.26
  A 0.51 0.51 0.0 0 1 327.78 181.75
  L 329.03 181.75
  A 0.48 0.47 0.3 0 1 329.51 182.23
  Q 329.53 190.18 329.47 194.15
  C 329.41 198.69 330.24 202.25 335.35 202.26
  C 340.45 202.27 341.30 198.71 341.26 194.17
  Q 341.21 190.20 341.26 182.25
  A 0.48 0.47 -0.1 0 1 341.74 181.78
  L 342.99 181.78
  A 0.51 0.51 0.0 0 1 343.50 182.28
  Q 343.50 189.43 343.48 194.91
  C 343.46 200.42 341.22 204.27 335.35 204.26
  Z"
/>
<path fill="#000000" d="
  M 378.85 181.75
  Q 382.40 181.76 385.65 181.73
  A 0.54 0.53 -0.3 0 1 386.19 182.26
  L 386.19 183.09
  A 0.53 0.53 0.0 0 1 385.66 183.62
  L 380.48 183.62
  A 0.48 0.48 0.0 0 0 380.00 184.10
  L 380.00 203.24
  A 0.72 0.72 0.0 0 1 379.44 203.94
  Q 379.18 204.00 378.88 204.00
  Q 378.59 204.00 378.32 203.94
  A 0.72 0.72 0.0 0 1 377.76 203.24
  L 377.71 184.10
  A 0.48 0.48 0.0 0 0 377.22 183.62
  L 372.04 183.64
  A 0.53 0.53 0.0 0 1 371.51 183.11
  L 371.51 182.28
  A 0.54 0.53 0.1 0 1 372.05 181.75
  Q 375.30 181.77 378.85 181.75
  Z"
/>
<path fill="#000000" d="
  M 454.64 182.29
  A 0.55 0.55 0.0 0 1 455.19 181.74
  L 462.45 181.76
  A 10.69 10.40 0.1 0 1 473.12 192.18
  L 473.12 193.64
  A 10.69 10.40 0.1 0 1 462.41 204.02
  L 455.15 204.00
  A 0.55 0.55 0.0 0 1 454.60 203.45
  L 454.64 182.29
  Z
  M 456.90 184.06
  L 456.84 201.68
  A 0.47 0.47 0.0 0 0 457.31 202.15
  L 462.27 202.16
  A 8.53 8.51 0.2 0 0 470.83 193.68
  L 470.83 192.14
  A 8.53 8.51 0.2 0 0 462.33 183.60
  L 457.37 183.59
  A 0.47 0.47 0.0 0 0 456.90 184.06
  Z"
/>
<path fill="#000000" d="
  M 501.24 200.95
  Q 501.31 200.95 501.38 200.92
  A 0.39 0.30 -85.9 0 0 501.57 200.71
  L 508.32 182.41
  A 1.10 1.09 -79.5 0 1 509.34 181.70
  L 510.30 181.70
  A 0.47 0.47 0.0 0 1 510.74 182.34
  L 502.72 203.50
  A 0.82 0.79 3.2 0 1 502.15 203.99
  Q 502.11 204.00 501.24 204.00
  Q 500.36 204.00 500.32 203.99
  A 0.82 0.79 -3.2 0 1 499.75 203.50
  L 491.74 182.34
  A 0.47 0.47 0.0 0 1 492.18 181.70
  L 493.14 181.70
  A 1.10 1.09 79.5 0 1 494.16 182.41
  L 500.90 200.71
  A 0.39 0.30 85.9 0 0 501.10 200.92
  Q 501.16 200.95 501.24 200.95
  Z"
/>
<path fill="#000000" d="
  M 213.84 181.99
  Q 214.26 181.99 214.65 182.08
  A 0.96 0.96 0.0 0 1 215.35 182.69
  L 223.03 203.50
  A 0.36 0.36 0.0 0 1 222.69 203.98
  L 221.38 203.98
  A 0.76 0.75 -9.9 0 1 220.67 203.49
  L 219.09 199.19
  A 0.73 0.73 0.0 0 0 218.36 198.71
  Q 217.58 198.76 213.84 198.76
  Q 210.09 198.76 209.32 198.71
  A 0.73 0.73 0.0 0 0 208.58 199.19
  L 207.00 203.48
  A 0.76 0.75 10.0 0 1 206.29 203.97
  L 204.98 203.97
  A 0.36 0.36 0.0 0 1 204.64 203.49
  L 212.34 182.69
  A 0.96 0.96 0.0 0 1 213.04 182.08
  Q 213.42 181.99 213.84 181.99
  Z
  M 213.83 196.88
  Q 217.47 196.88 217.69 196.86
  A 0.41 0.41 0.0 0 0 218.04 196.31
  L 213.97 185.25
  A 0.18 0.11 81.0 0 0 213.89 185.15
  Q 213.86 185.14 213.83 185.14
  Q 213.80 185.14 213.77 185.15
  A 0.18 0.11 -81.0 0 0 213.68 185.25
  L 209.62 196.31
  A 0.41 0.41 0.0 0 0 209.97 196.86
  Q 210.19 196.88 213.83 196.88
  Z"
/>
<circle fill="#009cd4" fill-opacity="0.996" cx="180.04" cy="193.38" r="3.69"/>
<circle fill="#009cd4" fill-opacity="0.996" cx="428.75" cy="193.40" r="3.68"/>
</svg>
