<svg width="21" height="29" viewBox="0 0 21 29" fill="none" xmlns="http://www.w3.org/2000/svg">
<path d="M18.9101 25.626V6.02308H15.2526C14.3905 6.02308 13.6851 5.30784 13.6851 4.43366V0.725006H1.6676C0.805473 0.725006 0.100098 1.44025 0.100098 2.31443V24.5664C0.100098 25.4405 0.805473 26.1558 1.6676 26.1558H18.3876C18.675 26.1558 18.9101 25.9174 18.9101 25.626ZM1.6676 9.73174C1.6676 8.29596 2.38865 6.96614 3.5486 6.19262C3.35527 5.82176 3.2351 5.40851 3.2351 4.96347C3.2351 3.5012 4.4055 2.31443 5.8476 2.31443C7.2897 2.31443 8.4601 3.5012 8.4601 4.96347C8.4601 5.4138 8.33992 5.82705 8.14137 6.19792C8.3765 6.35156 8.59595 6.5264 8.79972 6.73303C9.5887 7.53303 10.0224 8.59795 10.0224 9.73174V10.2615C10.0224 11.1357 9.317 11.851 8.45487 11.851H3.22987C2.36775 11.851 1.66237 11.1357 1.66237 10.2615V9.73174H1.6676ZM2.1901 13.9702H12.1176C12.405 13.9702 12.6401 14.2086 12.6401 14.5C12.6401 14.7914 12.405 15.0298 12.1176 15.0298H2.1901C1.90272 15.0298 1.6676 14.7914 1.6676 14.5C1.6676 14.2086 1.90272 13.9702 2.1901 13.9702ZM2.1901 16.0894H15.7751C16.0625 16.0894 16.2976 16.3278 16.2976 16.6192C16.2976 16.9106 16.0625 17.149 15.7751 17.149H2.1901C1.90272 17.149 1.6676 16.9106 1.6676 16.6192C1.6676 16.3278 1.90272 16.0894 2.1901 16.0894ZM1.6676 18.7385C1.6676 18.4471 1.90272 18.2087 2.1901 18.2087H8.9826C9.26997 18.2087 9.5051 18.4471 9.5051 18.7385C9.5051 19.0299 9.26997 19.2683 8.9826 19.2683H2.1901C1.90272 19.2683 1.6676 19.0299 1.6676 18.7385ZM16.8201 24.5664H7.4151C7.12772 24.5664 6.8926 24.3279 6.8926 24.0365C6.8926 23.7451 7.12772 23.5067 7.4151 23.5067H16.8201C17.1075 23.5067 17.3426 23.7451 17.3426 24.0365C17.3426 24.3279 17.1075 24.5664 16.8201 24.5664ZM16.8201 22.4471H10.5501C10.2627 22.4471 10.0276 22.2087 10.0276 21.9173C10.0276 21.6259 10.2627 21.3875 10.5501 21.3875H16.8201C17.1075 21.3875 17.3426 21.6259 17.3426 21.9173C17.3426 22.2087 17.1075 22.4471 16.8201 22.4471ZM2.7126 10.2615V9.73174C2.7126 8.61384 3.2978 7.59131 4.22262 7.01912C4.67197 7.38469 5.23105 7.61251 5.8476 7.61251C6.46415 7.61251 7.02322 7.38469 7.46735 7.02442C7.68157 7.15157 7.88012 7.29992 8.063 7.48535C8.65342 8.08403 8.9826 8.88404 8.9826 9.73174V10.2615C8.9826 10.5529 8.74747 10.7914 8.4601 10.7914H3.2351C2.94772 10.7914 2.7126 10.5529 2.7126 10.2615ZM14.7301 4.43366V1.47203L15.9266 2.68529L18.1681 4.95817H15.2474C14.96 4.95817 14.7249 4.71976 14.7249 4.42836L14.7301 4.43366ZM21.0001 4.43366V26.6856C21.0001 27.5598 20.2947 28.275 19.4326 28.275H3.7576C3.07835 28.275 2.5036 27.83 2.28415 27.2154H18.3876C19.2497 27.2154 19.9551 26.5002 19.9551 25.626V5.49328C19.9551 5.4244 19.9394 5.35553 19.9133 5.29195C19.8872 5.22837 19.8506 5.17009 19.7983 5.12241L17.5568 2.84953H19.4326C20.2947 2.84953 21.0001 3.56478 21.0001 4.43896V4.43366ZM4.2801 4.96347C4.2801 4.08928 4.98547 3.37404 5.8476 3.37404C6.70972 3.37404 7.4151 4.08928 7.4151 4.96347C7.4151 5.83765 6.70972 6.55289 5.8476 6.55289C4.98547 6.55289 4.2801 5.83765 4.2801 4.96347Z" fill="white"/>
</svg>
