<?xml version="1.0" encoding="UTF-8" standalone="no"?>
<!DOCTYPE svg PUBLIC "-//W3C//DTD SVG 1.1//EN" "http://www.w3.org/Graphics/SVG/1.1/DTD/svg11.dtd">
<svg xmlns="http://www.w3.org/2000/svg" version="1.1" viewBox="0.00 0.00 622.00 530.00">
<g stroke-width="2.00" fill="none" stroke-linecap="butt">
<path stroke="#0e111b" vector-effect="non-scaling-stroke" d="
  M 47.96 110.44
  Q 48.26 208.59 48.05 225.75
  Q 47.87 239.80 48.16 268.25
  Q 48.27 278.80 48.03 307.00
  Q 47.82 330.46 48.18 360.68
  A 8.36 8.35 -31.1 0 1 47.17 364.74
  Q 39.15 379.50 32.87 392.21
  C 32.34 393.29 31.37 394.48 30.74 395.73
  Q 16.79 423.31 16.54 423.80
  Q 10.08 436.89 12.80 450.24
  Q 15.98 465.83 30.53 473.68
  Q 30.75 473.80 37.51 476.40
  A 13.10 13.05 57.2 0 0 41.27 477.22
  Q 46.65 477.57 50.00 477.56
  Q 131.65 477.40 186.56 477.42
  Q 186.88 477.42 194.45 477.59
  C 201.04 477.73 209.15 477.37 214.17 477.52
  C 221.34 477.74 227.45 477.40 234.61 477.42
  Q 356.29 477.70 454.50 477.44
  Q 487.45 477.35 524.50 477.36
  Q 538.93 477.36 549.00 477.50
  C 555.36 477.59 561.61 477.35 569.25 477.52
  C 573.92 477.63 579.90 477.16 583.26 477.28
  Q 588.05 477.46 594.64 474.90
  Q 607.25 470.01 612.65 458.17
  Q 615.71 451.44 615.79 448.07
  Q 616.03 438.01 616.12 437.22
  A 7.42 7.24 38.8 0 0 615.91 435.48
  L 614.21 428.66
  A 4.98 4.52 26.9 0 0 613.84 427.69
  L 580.31 362.21
  A 1.56 1.43 -65.8 0 1 580.16 361.76
  Q 579.90 360.42 579.91 358.01
  Q 579.97 304.17 579.95 89.85
  Q 579.95 71.06 579.17 67.76
  Q 576.69 57.19 568.96 48.28
  A 4.95 4.19 2.4 0 0 568.21 47.59
  Q 567.94 47.39 562.07 42.94
  Q 556.45 38.68 548.77 36.73
  Q 545.22 35.82 534.14 35.83
  Q 355.29 35.94 106.68 35.87
  C 99.25 35.87 90.15 34.95 83.02 36.28
  Q 61.14 40.35 52.18 59.95
  Q 50.99 62.55 50.20 66.11
  C 48.93 71.77 48.05 73.85 48.07 78.76
  C 48.11 91.41 47.92 98.03 47.96 110.44"
/>
<path stroke="#0e111b" vector-effect="non-scaling-stroke" d="
  M 563.55 102.53
  Q 563.91 93.06 563.90 81.30
  Q 563.90 76.44 563.26 73.26
  Q 562.09 67.42 561.01 65.54
  Q 552.70 51.16 537.50 51.17
  Q 277.83 51.25 178.96 51.16
  Q 166.02 51.15 156.03 51.33
  C 142.14 51.59 129.13 51.15 115.38 51.36
  Q 102.73 51.56 97.61 51.44
  Q 88.22 51.21 84.00 52.59
  Q 77.11 54.84 72.23 59.82
  A 0.46 0.42 87.4 0 0 72.13 59.94
  L 68.23 65.59
  A 2.60 1.36 -63.8 0 0 68.04 65.90
  Q 65.43 71.12 65.37 79.12
  Q 65.27 92.12 65.37 103.45
  A 1.24 1.24 0.0 0 0 66.63 104.68
  C 78.16 104.50 90.46 104.94 100.80 104.57
  C 109.45 104.25 118.17 104.97 127.42 104.79
  Q 131.56 104.71 166.15 105.06
  C 188.88 105.29 216.92 104.52 236.79 104.55
  C 292.03 104.63 338.45 105.05 384.78 104.39
  Q 408.07 104.06 416.84 104.15
  Q 477.33 104.81 525.43 104.44
  Q 532.00 104.39 533.37 104.40
  Q 551.26 104.49 561.77 104.28
  A 1.83 1.82 -89.5 0 0 563.55 102.53"
/>
<path stroke="#0e111b" vector-effect="non-scaling-stroke" d="
  M 561.96 115.60
  Q 559.43 115.26 555.44 115.25
  Q 540.85 115.21 526.00 115.25
  Q 511.52 115.28 242.75 115.59
  Q 239.82 115.59 226.25 115.53
  Q 164.10 115.24 141.00 115.40
  Q 140.27 115.41 139.75 115.40
  Q 129.11 115.22 112.91 115.31
  Q 89.70 115.44 66.29 115.29
  A 1.10 1.10 0.0 0 0 65.19 116.39
  L 65.19 345.04
  A 1.74 1.74 0.0 0 0 66.93 346.78
  C 191.00 346.61 287.85 346.89 388.18 346.75
  Q 463.55 346.65 468.52 346.67
  Q 538.15 346.85 540.20 346.67
  Q 540.87 346.61 549.80 346.84
  Q 557.26 347.04 560.58 346.59
  Q 563.22 346.23 563.35 344.63
  Q 563.80 339.09 563.81 337.35
  Q 564.46 243.13 563.80 147.23
  Q 563.78 143.95 564.22 131.14
  C 564.39 126.15 564.00 121.37 563.33 116.95
  A 1.60 1.60 0.0 0 0 561.96 115.60"
/>
<path stroke="#0e111b" vector-effect="non-scaling-stroke" d="
  M 96.01 431.50
  Q 134.11 431.74 191.26 431.51
  Q 254.29 431.26 394.65 431.39
  C 439.67 431.44 473.78 432.00 513.74 431.70
  Q 564.33 431.31 576.74 431.35
  C 580.17 431.37 584.31 432.42 586.97 430.35
  Q 591.48 426.82 591.99 422.10
  Q 592.21 420.12 588.73 413.03
  Q 579.27 393.76 568.82 371.97
  Q 567.86 369.97 565.71 366.33
  C 563.62 362.77 559.37 363.80 555.90 363.82
  Q 542.41 363.92 409.56 363.71
  C 341.82 363.61 282.95 363.51 240.98 363.72
  C 185.33 364.00 128.43 363.55 67.08 363.93
  A 3.56 3.54 -77.6 0 0 63.88 365.99
  Q 60.87 372.51 57.41 379.19
  Q 53.02 387.64 38.04 417.18
  C 36.25 420.70 36.24 423.06 38.30 426.02
  C 40.78 429.58 43.17 431.76 47.51 431.71
  Q 73.25 431.37 96.01 431.50"
/>
<path stroke="#0e111b" vector-effect="non-scaling-stroke" d="
  M 28.26 443.08
  Q 27.32 444.56 27.77 446.45
  C 29.15 452.29 32.24 455.09 37.43 459.43
  A 5.25 5.00 73.7 0 0 39.00 460.34
  Q 45.83 462.85 49.43 462.79
  Q 78.83 462.36 115.00 462.48
  Q 221.12 462.83 431.25 462.54
  Q 436.04 462.53 440.96 462.54
  Q 513.71 462.60 579.00 462.54
  Q 582.47 462.54 589.65 460.11
  A 3.95 3.83 -70.7 0 0 590.59 459.64
  C 594.83 456.79 598.56 452.85 599.82 447.51
  C 600.39 445.09 599.93 442.38 597.00 442.43
  Q 586.34 442.64 579.00 442.64
  Q 378.84 442.61 219.75 442.64
  Q 123.41 442.66 29.59 442.35
  A 1.59 1.58 -73.4 0 0 28.26 443.08"
/>
<path stroke="#818182" vector-effect="non-scaling-stroke" d="
  M 314.55 102.54
  Q 559.88 102.50 561.21 102.56
  A 0.48 0.48 0.0 0 0 561.71 102.07
  Q 561.57 96.76 561.63 78.01
  C 561.67 66.92 555.53 58.06 545.33 54.45
  C 541.58 53.13 534.74 53.38 531.75 53.43
  Q 526.91 53.49 314.54 53.53
  Q 102.16 53.56 97.33 53.50
  C 94.34 53.45 87.50 53.20 83.75 54.53
  C 73.55 58.14 67.41 67.00 67.45 78.09
  Q 67.52 96.84 67.38 102.15
  A 0.48 0.48 0.0 0 0 67.88 102.64
  Q 69.22 102.58 314.55 102.54"
/>
<path stroke="#818182" vector-effect="non-scaling-stroke" d="
  M 198.42 77.75
  A 13.26 13.26 0.0 0 0 185.16 64.49
  A 13.26 13.26 0.0 0 0 171.90 77.75
  A 13.26 13.26 0.0 0 0 185.16 91.01
  A 13.26 13.26 0.0 0 0 198.42 77.75"
/>
<path stroke="#80a1fc" vector-effect="non-scaling-stroke" d="
  M 114.57 77.79
  A 12.92 12.92 0.0 0 0 101.65 64.87
  A 12.92 12.92 0.0 0 0 88.73 77.79
  A 12.92 12.92 0.0 0 0 101.65 90.71
  A 12.92 12.92 0.0 0 0 114.57 77.79"
/>
<path stroke="#82c7e1" vector-effect="non-scaling-stroke" d="
  M 156.19 77.61
  A 12.63 12.63 0.0 0 0 143.56 64.98
  A 12.63 12.63 0.0 0 0 130.93 77.61
  A 12.63 12.63 0.0 0 0 143.56 90.24
  A 12.63 12.63 0.0 0 0 156.19 77.61"
/>
<path stroke="#0e111b" vector-effect="non-scaling-stroke" d="
  M 183.7889 66.3526
  A 11.42 11.11 -97.3 0 0 174.2201 79.0917
  A 11.42 11.11 -97.3 0 0 186.6911 89.0074
  A 11.42 11.11 -97.3 0 0 196.2599 76.2683
  A 11.42 11.11 -97.3 0 0 183.7889 66.3526"
/>
<path stroke="#0d61fb" vector-effect="non-scaling-stroke" d="
  M 112.92 77.70
  A 11.19 11.19 0.0 0 0 101.73 66.51
  A 11.19 11.19 0.0 0 0 90.54 77.70
  A 11.19 11.19 0.0 0 0 101.73 88.89
  A 11.19 11.19 0.0 0 0 112.92 77.70"
/>
<path stroke="#10a3cb" vector-effect="non-scaling-stroke" d="
  M 151.21 69.95
  C 145.12 64.87 136.93 65.34 133.81 73.59
  A 1.96 1.91 55.6 0 0 133.68 74.34
  C 133.79 78.25 131.73 81.59 135.86 85.18
  Q 142.22 90.70 149.95 86.52
  C 153.29 84.72 154.48 79.51 154.23 76.22
  A 2.94 2.93 -59.7 0 0 153.96 75.19
  L 151.99 70.95
  A 2.93 2.87 -83.6 0 0 151.21 69.95"
/>
<path stroke="#818182" vector-effect="non-scaling-stroke" d="
  M 561.52 117.91
  A 0.59 0.59 0.0 0 0 560.93 117.32
  L 68.05 117.32
  A 0.59 0.59 0.0 0 0 67.46 117.91
  L 67.46 344.11
  A 0.59 0.59 0.0 0 0 68.05 344.70
  L 560.93 344.70
  A 0.59 0.59 0.0 0 0 561.52 344.11
  L 561.52 117.91"
/>
<path stroke="#80a1fc" vector-effect="non-scaling-stroke" d="
  M 323.48 154.83
  Q 303.47 208.27 286.63 251.67
  C 285.54 254.47 283.55 258.34 283.66 260.30
  Q 284.15 269.40 292.49 271.76
  Q 295.09 272.50 296.99 271.71
  C 301.26 269.93 302.37 268.09 304.20 263.20
  Q 319.81 221.44 334.58 181.81
  Q 338.77 170.59 341.20 164.94
  C 344.28 157.77 341.83 150.52 333.91 148.65
  C 329.74 147.66 325.88 150.97 323.81 154.17
  A 4.09 3.39 -23.7 0 0 323.48 154.83"
/>
<path stroke="#8cc0fe" vector-effect="non-scaling-stroke" d="
  M 412.99 211.17
  Q 414.95 212.42 411.00 213.95"
/>
<path stroke="#80a1fc" vector-effect="non-scaling-stroke" d="
  M 411.00 213.95
  Q 388.52 225.34 365.97 236.70
  Q 362.57 238.41 361.62 239.53
  C 358.73 242.94 357.83 247.50 360.30 251.58
  Q 363.93 257.60 371.60 255.70
  A 4.20 4.09 -65.4 0 0 372.63 255.30
  Q 399.01 241.12 436.69 221.95
  Q 442.61 218.93 442.93 212.72
  Q 443.21 207.48 438.80 204.71
  Q 438.42 204.47 432.46 201.03
  Q 372.67 166.46 372.66 166.45
  Q 369.45 164.74 368.01 164.99
  Q 361.74 166.10 359.87 170.88
  Q 357.67 176.46 360.13 180.62
  Q 361.45 182.85 368.07 186.60
  Q 388.53 198.18 407.76 208.75
  Q 409.10 209.49 412.99 211.17"
/>
<path stroke="#0d61fb" vector-effect="non-scaling-stroke" d="
  M 411.00 213.95
  Q 411.86 213.85 412.06 214.18
  A 1.12 1.02 -31.7 0 1 411.64 215.65
  Q 407.53 218.13 403.18 219.89
  Q 400.97 220.79 394.65 224.01
  Q 376.10 233.49 369.10 236.87
  Q 363.19 239.73 361.81 242.23
  Q 359.54 246.34 362.09 251.17
  A 2.82 2.71 -84.8 0 0 362.74 251.98
  Q 366.92 255.58 371.42 253.74
  C 377.52 251.25 383.49 247.30 390.02 243.95
  Q 412.54 232.39 421.97 227.47
  Q 429.31 223.64 434.98 220.99
  C 440.86 218.24 443.72 211.54 438.67 206.54
  A 3.50 3.19 -6.0 0 0 437.95 206.01
  Q 415.28 193.35 402.13 185.47
  Q 401.49 185.10 400.78 184.68
  Q 386.59 176.33 374.79 169.48
  C 370.21 166.82 365.22 165.19 362.09 170.63
  C 359.96 174.34 360.30 179.96 364.25 182.30
  Q 388.32 196.56 413.72 209.80
  A 0.70 0.69 -57.6 0 1 413.95 210.84
  Q 413.74 211.11 412.99 211.17"
/>
<path stroke="#8cc0fe" vector-effect="non-scaling-stroke" d="
  M 216.02 214.12
  Q 214.89 213.63 215.01 212.75
  A 0.60 0.58 77.4 0 1 215.24 212.37
  L 216.30 211.59"
/>
<path stroke="#80a1fc" vector-effect="non-scaling-stroke" d="
  M 216.30 211.59
  Q 217.97 210.94 219.56 210.06
  Q 235.95 201.07 257.30 188.83
  Q 263.59 185.22 264.85 183.22
  C 268.93 176.75 263.58 168.10 256.22 168.32
  Q 253.57 168.39 249.94 170.55
  Q 206.42 196.44 192.22 204.54
  Q 188.57 206.62 187.59 208.35
  C 185.29 212.44 186.19 217.62 189.47 220.71
  Q 190.40 221.59 195.80 224.44
  Q 227.57 241.22 251.35 254.66
  Q 256.32 257.47 261.08 254.19
  C 265.96 250.82 268.08 245.04 264.16 240.15
  Q 262.96 238.65 258.77 236.53
  Q 237.22 225.62 216.02 214.12"
/>
<path stroke="#0d61fb" vector-effect="non-scaling-stroke" d="
  M 216.30 211.59
  Q 215.61 211.79 215.46 211.46
  Q 215.08 210.62 215.90 210.16
  Q 223.52 205.93 257.64 186.79
  Q 262.22 184.22 263.01 182.74
  C 265.73 177.68 264.07 172.38 258.40 170.31
  C 255.53 169.27 253.71 170.48 251.01 172.05
  Q 212.18 194.53 191.78 206.82
  C 186.66 209.91 187.04 217.87 192.19 220.57
  Q 210.61 230.25 223.34 237.18
  Q 243.54 248.17 250.18 252.06
  C 255.43 255.14 262.66 253.82 264.09 247.48
  Q 265.36 241.84 259.96 239.08
  Q 227.64 222.57 215.13 215.37
  A 0.88 0.88 0.0 0 1 214.83 214.13
  Q 214.92 213.98 216.02 214.12"
/>
<path stroke="#82c7e1" vector-effect="non-scaling-stroke" d="
  M 342.25 310.08
  A 7.83 7.83 0.0 0 0 334.42 302.25
  L 161.52 302.25
  A 7.83 7.83 0.0 0 0 153.69 310.08
  L 153.69 310.62
  A 7.83 7.83 0.0 0 0 161.52 318.45
  L 334.42 318.45
  A 7.83 7.83 0.0 0 0 342.25 310.62
  L 342.25 310.08"
/>
<path stroke="#dfdfe0" vector-effect="non-scaling-stroke" d="
  M 475.5501 310.6019
  A 7.52 7.52 0.0 0 0 468.0433 303.0688
  L 366.3234 302.8912
  A 7.52 7.52 0.0 0 0 358.7903 310.3981
  L 358.7899 310.6381
  A 7.52 7.52 0.0 0 0 366.2967 318.1712
  L 468.0166 318.3488
  A 7.52 7.52 0.0 0 0 475.5497 310.8419
  L 475.5501 310.6019"
/>
<path stroke="#0d61fb" vector-effect="non-scaling-stroke" d="
  M 340.5365 161.5938
  A 8.08 8.08 0.0 0 0 335.8342 151.1793
  L 335.4039 151.0167
  A 8.08 8.08 0.0 0 0 324.9894 155.7190
  L 286.0435 258.7862
  A 8.08 8.08 0.0 0 0 290.7458 269.2007
  L 291.1761 269.3633
  A 8.08 8.08 0.0 0 0 301.5906 264.6610
  L 340.5365 161.5938"
/>
<path stroke="#10a3cb" vector-effect="non-scaling-stroke" d="
  M 340.39 309.90
  A 5.60 5.60 0.0 0 0 334.79 304.30
  L 161.15 304.30
  A 5.60 5.60 0.0 0 0 155.55 309.90
  L 155.55 311.32
  A 5.60 5.60 0.0 0 0 161.15 316.92
  L 334.79 316.92
  A 5.60 5.60 0.0 0 0 340.39 311.32
  L 340.39 309.90"
/>
<path stroke="#818182" vector-effect="non-scaling-stroke" d="
  M 66.06 366.56
  A 1.70 1.62 -4.7 0 0 65.52 367.17
  Q 44.14 409.51 39.78 417.58
  Q 37.75 421.34 39.80 425.01
  Q 42.48 429.81 47.81 429.80
  Q 299.40 429.59 582.25 429.78
  Q 585.54 429.78 587.72 427.35
  C 590.72 424.00 590.08 420.05 588.14 416.14
  Q 581.96 403.72 564.74 368.20
  Q 563.57 365.78 560.51 365.78
  Q 256.14 365.78 67.31 365.79
  A 0.42 0.39 -61.2 0 0 67.07 365.87
  L 66.06 366.56"
/>
<path stroke="#dfdfe0" vector-effect="non-scaling-stroke" d="
  M 405.13 385.64
  A 1.88 1.88 0.0 0 0 403.40 384.50
  L 225.53 384.50
  A 1.88 1.88 0.0 0 0 223.81 385.61
  L 208.63 419.30
  A 1.88 1.88 0.0 0 0 210.35 421.95
  L 417.86 421.95
  A 1.88 1.88 0.0 0 0 419.59 419.33
  L 405.13 385.64"
/>
<path stroke="#818182" vector-effect="non-scaling-stroke" d="
  M 313.92 460.69
  Q 527.16 460.70 571.33 460.67
  Q 583.73 460.66 587.26 459.19
  Q 595.96 455.56 598.48 444.99
  A 0.48 0.48 0.0 0 0 597.99 444.40
  Q 597.28 444.42 595.50 444.46
  Q 591.38 444.56 313.92 444.55
  Q 36.46 444.53 32.34 444.43
  Q 30.57 444.39 29.86 444.37
  A 0.48 0.48 0.0 0 0 29.37 444.96
  Q 31.88 455.53 40.58 459.16
  Q 44.11 460.63 56.52 460.64
  Q 100.68 460.68 313.92 460.69"
/>
<path stroke="#dfdfe0" vector-effect="non-scaling-stroke" d="
  M 32.29 447.95
  Q 34.20 454.42 41.15 457.11
  Q 44.34 458.35 48.25 458.35
  Q 205.26 458.57 419.57 458.55
  Q 470.40 458.54 577.52 458.41
  C 585.56 458.40 593.16 456.87 595.33 447.99
  A 1.26 1.26 0.0 0 0 594.11 446.43
  L 33.43 446.43
  A 1.19 1.18 -8.2 0 0 32.29 447.95"
/>
</g>
<path fill="#020204" fill-opacity="0.996" d="
  M 584.38 365.54
  C 584.66 366.98 585.76 367.32 585.83 368.57
  Q 585.89 369.53 586.61 369.72
  A 0.74 0.73 -81.3 0 1 587.15 370.47
  Q 587.10 371.66 587.85 372.21
  A 1.42 1.39 19.3 0 1 588.43 373.38
  Q 588.42 373.43 588.42 373.48
  A 1.11 1.08 15.5 0 0 589.04 374.55
  Q 589.61 374.84 589.56 375.51
  A 0.82 0.78 -58.8 0 0 589.65 375.92
  Q 595.96 387.94 598.30 392.70
  Q 604.79 405.90 614.36 424.37
  Q 615.39 426.36 618.36 435.87
  A 0.96 0.87 -56.2 0 1 618.40 436.14
  L 618.40 447.99
  A 1.77 1.68 61.1 0 1 618.18 448.84
  Q 616.99 450.95 617.10 453.50
  A 0.86 0.84 78.3 0 1 616.57 454.32
  Q 615.87 454.59 615.85 455.51
  C 615.80 457.62 613.02 462.00 612.28 463.05
  Q 603.92 474.80 590.42 478.61
  Q 587.26 479.51 582.52 479.61
  Q 580.73 479.65 574.50 479.65
  Q 327.59 479.64 44.50 479.64
  C 43.14 479.64 40.92 479.63 39.20 479.19
  C 26.22 475.87 15.56 466.60 11.25 453.72
  Q 9.88 449.60 9.82 444.60
  Q 9.73 437.22 10.12 435.32
  C 10.89 431.52 12.83 426.54 14.74 422.77
  Q 21.99 408.54 31.89 389.39
  Q 33.04 387.16 33.37 386.70
  A 1.96 1.91 66.1 0 0 33.72 385.76
  Q 33.73 385.56 33.75 385.40
  A 0.99 0.99 0.0 0 1 34.46 384.57
  Q 35.21 384.36 35.06 383.36
  A 1.06 1.05 70.3 0 1 35.55 382.31
  Q 35.73 382.20 35.75 382.18
  A 1.23 1.21 76.7 0 0 36.17 381.49
  Q 36.36 380.63 36.97 379.50
  Q 42.27 369.61 45.62 363.85
  A 7.33 7.26 -30.3 0 0 46.59 360.22
  Q 46.50 229.82 46.60 76.76
  Q 46.61 68.38 50.24 59.68
  C 51.81 55.92 54.90 52.34 56.67 49.06
  A 5.26 5.11 -8.1 0 1 57.69 47.74
  Q 64.12 41.73 71.65 37.84
  Q 72.63 37.34 73.47 37.29
  C 74.50 37.23 74.63 36.26 75.71 36.19
  Q 77.92 36.05 78.79 35.27
  A 1.41 1.39 23.3 0 1 79.74 34.90
  Q 81.25 34.90 83.10 34.35
  C 85.65 33.60 88.44 33.61 91.28 33.61
  Q 457.45 33.59 541.77 33.61
  A 4.40 4.25 50.8 0 1 542.78 33.73
  Q 546.67 34.63 547.39 34.64
  Q 549.85 34.70 553.34 36.04
  Q 565.05 40.55 573.13 50.29
  Q 573.90 51.22 575.68 54.11
  Q 577.87 57.68 577.92 57.76
  Q 579.20 59.97 581.24 67.40
  Q 582.18 70.83 582.18 74.51
  Q 582.18 192.58 582.19 358.76
  Q 582.19 363.19 583.86 364.65
  A 1.61 1.55 -76.3 0 1 584.38 365.54
  Z
  M 47.96 110.44
  Q 48.26 208.59 48.05 225.75
  Q 47.87 239.80 48.16 268.25
  Q 48.27 278.80 48.03 307.00
  Q 47.82 330.46 48.18 360.68
  A 8.36 8.35 -31.1 0 1 47.17 364.74
  Q 39.15 379.50 32.87 392.21
  C 32.34 393.29 31.37 394.48 30.74 395.73
  Q 16.79 423.31 16.54 423.80
  Q 10.08 436.89 12.80 450.24
  Q 15.98 465.83 30.53 473.68
  Q 30.75 473.80 37.51 476.40
  A 13.10 13.05 57.2 0 0 41.27 477.22
  Q 46.65 477.57 50.00 477.56
  Q 131.65 477.40 186.56 477.42
  Q 186.88 477.42 194.45 477.59
  C 201.04 477.73 209.15 477.37 214.17 477.52
  C 221.34 477.74 227.45 477.40 234.61 477.42
  Q 356.29 477.70 454.50 477.44
  Q 487.45 477.35 524.50 477.36
  Q 538.93 477.36 549.00 477.50
  C 555.36 477.59 561.61 477.35 569.25 477.52
  C 573.92 477.63 579.90 477.16 583.26 477.28
  Q 588.05 477.46 594.64 474.90
  Q 607.25 470.01 612.65 458.17
  Q 615.71 451.44 615.79 448.07
  Q 616.03 438.01 616.12 437.22
  A 7.42 7.24 38.8 0 0 615.91 435.48
  L 614.21 428.66
  A 4.98 4.52 26.9 0 0 613.84 427.69
  L 580.31 362.21
  A 1.56 1.43 -65.8 0 1 580.16 361.76
  Q 579.90 360.42 579.91 358.01
  Q 579.97 304.17 579.95 89.85
  Q 579.95 71.06 579.17 67.76
  Q 576.69 57.19 568.96 48.28
  A 4.95 4.19 2.4 0 0 568.21 47.59
  Q 567.94 47.39 562.07 42.94
  Q 556.45 38.68 548.77 36.73
  Q 545.22 35.82 534.14 35.83
  Q 355.29 35.94 106.68 35.87
  C 99.25 35.87 90.15 34.95 83.02 36.28
  Q 61.14 40.35 52.18 59.95
  Q 50.99 62.55 50.20 66.11
  C 48.93 71.77 48.05 73.85 48.07 78.76
  C 48.11 91.41 47.92 98.03 47.96 110.44
  Z"
/>
<path fill="#1a1f32" d="
  M 47.96 110.44
  C 47.92 98.03 48.11 91.41 48.07 78.76
  C 48.05 73.85 48.93 71.77 50.20 66.11
  Q 50.99 62.55 52.18 59.95
  Q 61.14 40.35 83.02 36.28
  C 90.15 34.95 99.25 35.87 106.68 35.87
  Q 355.29 35.94 534.14 35.83
  Q 545.22 35.82 548.77 36.73
  Q 556.45 38.68 562.07 42.94
  Q 567.94 47.39 568.21 47.59
  A 4.95 4.19 2.4 0 1 568.96 48.28
  Q 576.69 57.19 579.17 67.76
  Q 579.95 71.06 579.95 89.85
  Q 579.97 304.17 579.91 358.01
  Q 579.90 360.42 580.16 361.76
  A 1.56 1.43 -65.8 0 0 580.31 362.21
  L 613.84 427.69
  A 4.98 4.52 26.9 0 1 614.21 428.66
  L 615.91 435.48
  A 7.42 7.24 38.8 0 1 616.12 437.22
  Q 616.03 438.01 615.79 448.07
  Q 615.71 451.44 612.65 458.17
  Q 607.25 470.01 594.64 474.90
  Q 588.05 477.46 583.26 477.28
  C 579.90 477.16 573.92 477.63 569.25 477.52
  C 561.61 477.35 555.36 477.59 549.00 477.50
  Q 538.93 477.36 524.50 477.36
  Q 487.45 477.35 454.50 477.44
  Q 356.29 477.70 234.61 477.42
  C 227.45 477.40 221.34 477.74 214.17 477.52
  C 209.15 477.37 201.04 477.73 194.45 477.59
  Q 186.88 477.42 186.56 477.42
  Q 131.65 477.40 50.00 477.56
  Q 46.65 477.57 41.27 477.22
  A 13.10 13.05 57.2 0 1 37.51 476.40
  Q 30.75 473.80 30.53 473.68
  Q 15.98 465.83 12.80 450.24
  Q 10.08 436.89 16.54 423.80
  Q 16.79 423.31 30.74 395.73
  C 31.37 394.48 32.34 393.29 32.87 392.21
  Q 39.15 379.50 47.17 364.74
  A 8.36 8.35 -31.1 0 0 48.18 360.68
  Q 47.82 330.46 48.03 307.00
  Q 48.27 278.80 48.16 268.25
  Q 47.87 239.80 48.05 225.75
  Q 48.26 208.59 47.96 110.44
  Z
  M 563.55 102.53
  Q 563.91 93.06 563.90 81.30
  Q 563.90 76.44 563.26 73.26
  Q 562.09 67.42 561.01 65.54
  Q 552.70 51.16 537.50 51.17
  Q 277.83 51.25 178.96 51.16
  Q 166.02 51.15 156.03 51.33
  C 142.14 51.59 129.13 51.15 115.38 51.36
  Q 102.73 51.56 97.61 51.44
  Q 88.22 51.21 84.00 52.59
  Q 77.11 54.84 72.23 59.82
  A 0.46 0.42 87.4 0 0 72.13 59.94
  L 68.23 65.59
  A 2.60 1.36 -63.8 0 0 68.04 65.90
  Q 65.43 71.12 65.37 79.12
  Q 65.27 92.12 65.37 103.45
  A 1.24 1.24 0.0 0 0 66.63 104.68
  C 78.16 104.50 90.46 104.94 100.80 104.57
  C 109.45 104.25 118.17 104.97 127.42 104.79
  Q 131.56 104.71 166.15 105.06
  C 188.88 105.29 216.92 104.52 236.79 104.55
  C 292.03 104.63 338.45 105.05 384.78 104.39
  Q 408.07 104.06 416.84 104.15
  Q 477.33 104.81 525.43 104.44
  Q 532.00 104.39 533.37 104.40
  Q 551.26 104.49 561.77 104.28
  A 1.83 1.82 -89.5 0 0 563.55 102.53
  Z
  M 561.96 115.60
  Q 559.43 115.26 555.44 115.25
  Q 540.85 115.21 526.00 115.25
  Q 511.52 115.28 242.75 115.59
  Q 239.82 115.59 226.25 115.53
  Q 164.10 115.24 141.00 115.40
  Q 140.27 115.41 139.75 115.40
  Q 129.11 115.22 112.91 115.31
  Q 89.70 115.44 66.29 115.29
  A 1.10 1.10 0.0 0 0 65.19 116.39
  L 65.19 345.04
  A 1.74 1.74 0.0 0 0 66.93 346.78
  C 191.00 346.61 287.85 346.89 388.18 346.75
  Q 463.55 346.65 468.52 346.67
  Q 538.15 346.85 540.20 346.67
  Q 540.87 346.61 549.80 346.84
  Q 557.26 347.04 560.58 346.59
  Q 563.22 346.23 563.35 344.63
  Q 563.80 339.09 563.81 337.35
  Q 564.46 243.13 563.80 147.23
  Q 563.78 143.95 564.22 131.14
  C 564.39 126.15 564.00 121.37 563.33 116.95
  A 1.60 1.60 0.0 0 0 561.96 115.60
  Z
  M 96.01 431.50
  Q 134.11 431.74 191.26 431.51
  Q 254.29 431.26 394.65 431.39
  C 439.67 431.44 473.78 432.00 513.74 431.70
  Q 564.33 431.31 576.74 431.35
  C 580.17 431.37 584.31 432.42 586.97 430.35
  Q 591.48 426.82 591.99 422.10
  Q 592.21 420.12 588.73 413.03
  Q 579.27 393.76 568.82 371.97
  Q 567.86 369.97 565.71 366.33
  C 563.62 362.77 559.37 363.80 555.90 363.82
  Q 542.41 363.92 409.56 363.71
  C 341.82 363.61 282.95 363.51 240.98 363.72
  C 185.33 364.00 128.43 363.55 67.08 363.93
  A 3.56 3.54 -77.6 0 0 63.88 365.99
  Q 60.87 372.51 57.41 379.19
  Q 53.02 387.64 38.04 417.18
  C 36.25 420.70 36.24 423.06 38.30 426.02
  C 40.78 429.58 43.17 431.76 47.51 431.71
  Q 73.25 431.37 96.01 431.50
  Z
  M 28.26 443.08
  Q 27.32 444.56 27.77 446.45
  C 29.15 452.29 32.24 455.09 37.43 459.43
  A 5.25 5.00 73.7 0 0 39.00 460.34
  Q 45.83 462.85 49.43 462.79
  Q 78.83 462.36 115.00 462.48
  Q 221.12 462.83 431.25 462.54
  Q 436.04 462.53 440.96 462.54
  Q 513.71 462.60 579.00 462.54
  Q 582.47 462.54 589.65 460.11
  A 3.95 3.83 -70.7 0 0 590.59 459.64
  C 594.83 456.79 598.56 452.85 599.82 447.51
  C 600.39 445.09 599.93 442.38 597.00 442.43
  Q 586.34 442.64 579.00 442.64
  Q 378.84 442.61 219.75 442.64
  Q 123.41 442.66 29.59 442.35
  A 1.59 1.58 -73.4 0 0 28.26 443.08
  Z"
/>
<path fill="#020204" fill-opacity="0.996" d="
  M 563.55 102.53
  A 1.83 1.82 -89.5 0 1 561.77 104.28
  Q 551.26 104.49 533.37 104.40
  Q 532.00 104.39 525.43 104.44
  Q 477.33 104.81 416.84 104.15
  Q 408.07 104.06 384.78 104.39
  C 338.45 105.05 292.03 104.63 236.79 104.55
  C 216.92 104.52 188.88 105.29 166.15 105.06
  Q 131.56 104.71 127.42 104.79
  C 118.17 104.97 109.45 104.25 100.80 104.57
  C 90.46 104.94 78.16 104.50 66.63 104.68
  A 1.24 1.24 0.0 0 1 65.37 103.45
  Q 65.27 92.12 65.37 79.12
  Q 65.43 71.12 68.04 65.90
  A 2.60 1.36 -63.8 0 1 68.23 65.59
  L 72.13 59.94
  A 0.46 0.42 87.4 0 1 72.23 59.82
  Q 77.11 54.84 84.00 52.59
  Q 88.22 51.21 97.61 51.44
  Q 102.73 51.56 115.38 51.36
  C 129.13 51.15 142.14 51.59 156.03 51.33
  Q 166.02 51.15 178.96 51.16
  Q 277.83 51.25 537.50 51.17
  Q 552.70 51.16 561.01 65.54
  Q 562.09 67.42 563.26 73.26
  Q 563.90 76.44 563.90 81.30
  Q 563.91 93.06 563.55 102.53
  Z
  M 314.55 102.54
  Q 559.88 102.50 561.21 102.56
  A 0.48 0.48 0.0 0 0 561.71 102.07
  Q 561.57 96.76 561.63 78.01
  C 561.67 66.92 555.53 58.06 545.33 54.45
  C 541.58 53.13 534.74 53.38 531.75 53.43
  Q 526.91 53.49 314.54 53.53
  Q 102.16 53.56 97.33 53.50
  C 94.34 53.45 87.50 53.20 83.75 54.53
  C 73.55 58.14 67.41 67.00 67.45 78.09
  Q 67.52 96.84 67.38 102.15
  A 0.48 0.48 0.0 0 0 67.88 102.64
  Q 69.22 102.58 314.55 102.54
  Z"
/>
<path fill="#ffffff" d="
  M 314.54 53.53
  Q 526.91 53.49 531.75 53.43
  C 534.74 53.38 541.58 53.13 545.33 54.45
  C 555.53 58.06 561.67 66.92 561.63 78.01
  Q 561.57 96.76 561.71 102.07
  A 0.48 0.48 0.0 0 1 561.21 102.56
  Q 559.88 102.50 314.55 102.54
  Q 69.22 102.58 67.88 102.64
  A 0.48 0.48 0.0 0 1 67.38 102.15
  Q 67.52 96.84 67.45 78.09
  C 67.41 67.00 73.55 58.14 83.75 54.53
  C 87.50 53.20 94.34 53.45 97.33 53.50
  Q 102.16 53.56 314.54 53.53
  Z
  M 198.42 77.75
  A 13.26 13.26 0.0 0 0 185.16 64.49
  A 13.26 13.26 0.0 0 0 171.90 77.75
  A 13.26 13.26 0.0 0 0 185.16 91.01
  A 13.26 13.26 0.0 0 0 198.42 77.75
  Z
  M 114.57 77.79
  A 12.92 12.92 0.0 0 0 101.65 64.87
  A 12.92 12.92 0.0 0 0 88.73 77.79
  A 12.92 12.92 0.0 0 0 101.65 90.71
  A 12.92 12.92 0.0 0 0 114.57 77.79
  Z
  M 156.19 77.61
  A 12.63 12.63 0.0 0 0 143.56 64.98
  A 12.63 12.63 0.0 0 0 130.93 77.61
  A 12.63 12.63 0.0 0 0 143.56 90.24
  A 12.63 12.63 0.0 0 0 156.19 77.61
  Z"
/>
<path fill="#020204" fill-opacity="0.996" d="
  M 198.42 77.75
  A 13.26 13.26 0.0 0 1 185.16 91.01
  A 13.26 13.26 0.0 0 1 171.90 77.75
  A 13.26 13.26 0.0 0 1 185.16 64.49
  A 13.26 13.26 0.0 0 1 198.42 77.75
  Z
  M 183.7889 66.3526
  A 11.42 11.11 -97.3 0 0 174.2201 79.0917
  A 11.42 11.11 -97.3 0 0 186.6911 89.0074
  A 11.42 11.11 -97.3 0 0 196.2599 76.2683
  A 11.42 11.11 -97.3 0 0 183.7889 66.3526
  Z"
/>
<path fill="#0142f8" fill-opacity="0.996" d="
  M 114.57 77.79
  A 12.92 12.92 0.0 0 1 101.65 90.71
  A 12.92 12.92 0.0 0 1 88.73 77.79
  A 12.92 12.92 0.0 0 1 101.65 64.87
  A 12.92 12.92 0.0 0 1 114.57 77.79
  Z
  M 112.92 77.70
  A 11.19 11.19 0.0 0 0 101.73 66.51
  A 11.19 11.19 0.0 0 0 90.54 77.70
  A 11.19 11.19 0.0 0 0 101.73 88.89
  A 11.19 11.19 0.0 0 0 112.92 77.70
  Z"
/>
<path fill="#048fc3" d="
  M 156.19 77.61
  A 12.63 12.63 0.0 0 1 143.56 90.24
  A 12.63 12.63 0.0 0 1 130.93 77.61
  A 12.63 12.63 0.0 0 1 143.56 64.98
  A 12.63 12.63 0.0 0 1 156.19 77.61
  Z
  M 151.21 69.95
  C 145.12 64.87 136.93 65.34 133.81 73.59
  A 1.96 1.91 55.6 0 0 133.68 74.34
  C 133.79 78.25 131.73 81.59 135.86 85.18
  Q 142.22 90.70 149.95 86.52
  C 153.29 84.72 154.48 79.51 154.23 76.22
  A 2.94 2.93 -59.7 0 0 153.96 75.19
  L 151.99 70.95
  A 2.93 2.87 -83.6 0 0 151.21 69.95
  Z"
/>
<circle fill="#1880fd" cx="101.73" cy="77.70" r="11.19"/>
<ellipse fill="#1a1f32" cx="0.00" cy="0.00" transform="translate(185.24,77.68) rotate(-97.3)" rx="11.42" ry="11.11"/>
<path fill="#1bb6d3" d="
  M 151.99 70.95
  L 153.96 75.19
  A 2.94 2.93 -59.7 0 1 154.23 76.22
  C 154.48 79.51 153.29 84.72 149.95 86.52
  Q 142.22 90.70 135.86 85.18
  C 131.73 81.59 133.79 78.25 133.68 74.34
  A 1.96 1.91 55.6 0 1 133.81 73.59
  C 136.93 65.34 145.12 64.87 151.21 69.95
  A 2.93 2.87 -83.6 0 1 151.99 70.95
  Z"
/>
<path fill="#020204" fill-opacity="0.996" d="
  M 561.96 115.60
  A 1.60 1.60 0.0 0 1 563.33 116.95
  C 564.00 121.37 564.39 126.15 564.22 131.14
  Q 563.78 143.95 563.80 147.23
  Q 564.46 243.13 563.81 337.35
  Q 563.80 339.09 563.35 344.63
  Q 563.22 346.23 560.58 346.59
  Q 557.26 347.04 549.80 346.84
  Q 540.87 346.61 540.20 346.67
  Q 538.15 346.85 468.52 346.67
  Q 463.55 346.65 388.18 346.75
  C 287.85 346.89 191.00 346.61 66.93 346.78
  A 1.74 1.74 0.0 0 1 65.19 345.04
  L 65.19 116.39
  A 1.10 1.10 0.0 0 1 66.29 115.29
  Q 89.70 115.44 112.91 115.31
  Q 129.11 115.22 139.75 115.40
  Q 140.27 115.41 141.00 115.40
  Q 164.10 115.24 226.25 115.53
  Q 239.82 115.59 242.75 115.59
  Q 511.52 115.28 526.00 115.25
  Q 540.85 115.21 555.44 115.25
  Q 559.43 115.26 561.96 115.60
  Z
  M 561.52 117.91
  A 0.59 0.59 0.0 0 0 560.93 117.32
  L 68.05 117.32
  A 0.59 0.59 0.0 0 0 67.46 117.91
  L 67.46 344.11
  A 0.59 0.59 0.0 0 0 68.05 344.70
  L 560.93 344.70
  A 0.59 0.59 0.0 0 0 561.52 344.11
  L 561.52 117.91
  Z"
/>
<path fill="#ffffff" d="
  M 561.52 344.11
  A 0.59 0.59 0.0 0 1 560.93 344.70
  L 68.05 344.70
  A 0.59 0.59 0.0 0 1 67.46 344.11
  L 67.46 117.91
  A 0.59 0.59 0.0 0 1 68.05 117.32
  L 560.93 117.32
  A 0.59 0.59 0.0 0 1 561.52 117.91
  L 561.52 344.11
  Z
  M 323.48 154.83
  Q 303.47 208.27 286.63 251.67
  C 285.54 254.47 283.55 258.34 283.66 260.30
  Q 284.15 269.40 292.49 271.76
  Q 295.09 272.50 296.99 271.71
  C 301.26 269.93 302.37 268.09 304.20 263.20
  Q 319.81 221.44 334.58 181.81
  Q 338.77 170.59 341.20 164.94
  C 344.28 157.77 341.83 150.52 333.91 148.65
  C 329.74 147.66 325.88 150.97 323.81 154.17
  A 4.09 3.39 -23.7 0 0 323.48 154.83
  Z
  M 412.99 211.17
  Q 414.95 212.42 411.00 213.95
  Q 388.52 225.34 365.97 236.70
  Q 362.57 238.41 361.62 239.53
  C 358.73 242.94 357.83 247.50 360.30 251.58
  Q 363.93 257.60 371.60 255.70
  A 4.20 4.09 -65.4 0 0 372.63 255.30
  Q 399.01 241.12 436.69 221.95
  Q 442.61 218.93 442.93 212.72
  Q 443.21 207.48 438.80 204.71
  Q 438.42 204.47 432.46 201.03
  Q 372.67 166.46 372.66 166.45
  Q 369.45 164.74 368.01 164.99
  Q 361.74 166.10 359.87 170.88
  Q 357.67 176.46 360.13 180.62
  Q 361.45 182.85 368.07 186.60
  Q 388.53 198.18 407.76 208.75
  Q 409.10 209.49 412.99 211.17
  Z
  M 216.02 214.12
  Q 214.89 213.63 215.01 212.75
  A 0.60 0.58 77.4 0 1 215.24 212.37
  L 216.30 211.59
  Q 217.97 210.94 219.56 210.06
  Q 235.95 201.07 257.30 188.83
  Q 263.59 185.22 264.85 183.22
  C 268.93 176.75 263.58 168.10 256.22 168.32
  Q 253.57 168.39 249.94 170.55
  Q 206.42 196.44 192.22 204.54
  Q 188.57 206.62 187.59 208.35
  C 185.29 212.44 186.19 217.62 189.47 220.71
  Q 190.40 221.59 195.80 224.44
  Q 227.57 241.22 251.35 254.66
  Q 256.32 257.47 261.08 254.19
  C 265.96 250.82 268.08 245.04 264.16 240.15
  Q 262.96 238.65 258.77 236.53
  Q 237.22 225.62 216.02 214.12
  Z
  M 342.25 310.08
  A 7.83 7.83 0.0 0 0 334.42 302.25
  L 161.52 302.25
  A 7.83 7.83 0.0 0 0 153.69 310.08
  L 153.69 310.62
  A 7.83 7.83 0.0 0 0 161.52 318.45
  L 334.42 318.45
  A 7.83 7.83 0.0 0 0 342.25 310.62
  L 342.25 310.08
  Z
  M 475.5501 310.6019
  A 7.52 7.52 0.0 0 0 468.0433 303.0688
  L 366.3234 302.8912
  A 7.52 7.52 0.0 0 0 358.7903 310.3981
  L 358.7899 310.6381
  A 7.52 7.52 0.0 0 0 366.2967 318.1712
  L 468.0166 318.3488
  A 7.52 7.52 0.0 0 0 475.5497 310.8419
  L 475.5501 310.6019
  Z"
/>
<path fill="#0142f8" fill-opacity="0.996" d="
  M 323.81 154.17
  C 325.88 150.97 329.74 147.66 333.91 148.65
  C 341.83 150.52 344.28 157.77 341.20 164.94
  Q 338.77 170.59 334.58 181.81
  Q 319.81 221.44 304.20 263.20
  C 302.37 268.09 301.26 269.93 296.99 271.71
  Q 295.09 272.50 292.49 271.76
  Q 284.15 269.40 283.66 260.30
  C 283.55 258.34 285.54 254.47 286.63 251.67
  Q 303.47 208.27 323.48 154.83
  A 4.09 3.39 -23.7 0 1 323.81 154.17
  Z
  M 340.5365 161.5938
  A 8.08 8.08 0.0 0 0 335.8342 151.1793
  L 335.4039 151.0167
  A 8.08 8.08 0.0 0 0 324.9894 155.7190
  L 286.0435 258.7862
  A 8.08 8.08 0.0 0 0 290.7458 269.2007
  L 291.1761 269.3633
  A 8.08 8.08 0.0 0 0 301.5906 264.6610
  L 340.5365 161.5938
  Z"
/>
<rect fill="#1880fd" x="-8.31" y="-63.17" transform="translate(313.29,210.19) rotate(20.7)" width="16.62" height="126.34" rx="8.08"/>
<path fill="#0142f8" fill-opacity="0.996" d="
  M 411.00 213.95
  Q 411.86 213.85 412.06 214.18
  A 1.12 1.02 -31.7 0 1 411.64 215.65
  Q 407.53 218.13 403.18 219.89
  Q 400.97 220.79 394.65 224.01
  Q 376.10 233.49 369.10 236.87
  Q 363.19 239.73 361.81 242.23
  Q 359.54 246.34 362.09 251.17
  A 2.82 2.71 -84.8 0 0 362.74 251.98
  Q 366.92 255.58 371.42 253.74
  C 377.52 251.25 383.49 247.30 390.02 243.95
  Q 412.54 232.39 421.97 227.47
  Q 429.31 223.64 434.98 220.99
  C 440.86 218.24 443.72 211.54 438.67 206.54
  A 3.50 3.19 -6.0 0 0 437.95 206.01
  Q 415.28 193.35 402.13 185.47
  Q 401.49 185.10 400.78 184.68
  Q 386.59 176.33 374.79 169.48
  C 370.21 166.82 365.22 165.19 362.09 170.63
  C 359.96 174.34 360.30 179.96 364.25 182.30
  Q 388.32 196.56 413.72 209.80
  A 0.70 0.69 -57.6 0 1 413.95 210.84
  Q 413.74 211.11 412.99 211.17
  Q 409.10 209.49 407.76 208.75
  Q 388.53 198.18 368.07 186.60
  Q 361.45 182.85 360.13 180.62
  Q 357.67 176.46 359.87 170.88
  Q 361.74 166.10 368.01 164.99
  Q 369.45 164.74 372.66 166.45
  Q 372.67 166.46 432.46 201.03
  Q 438.42 204.47 438.80 204.71
  Q 443.21 207.48 442.93 212.72
  Q 442.61 218.93 436.69 221.95
  Q 399.01 241.12 372.63 255.30
  A 4.20 4.09 -65.4 0 1 371.60 255.70
  Q 363.93 257.60 360.30 251.58
  C 357.83 247.50 358.73 242.94 361.62 239.53
  Q 362.57 238.41 365.97 236.70
  Q 388.52 225.34 411.00 213.95
  Z"
/>
<path fill="#1880fd" d="
  M 411.00 213.95
  Q 414.95 212.42 412.99 211.17
  Q 413.74 211.11 413.95 210.84
  A 0.70 0.69 -57.6 0 0 413.72 209.80
  Q 388.32 196.56 364.25 182.30
  C 360.30 179.96 359.96 174.34 362.09 170.63
  C 365.22 165.19 370.21 166.82 374.79 169.48
  Q 386.59 176.33 400.78 184.68
  Q 401.49 185.10 402.13 185.47
  Q 415.28 193.35 437.95 206.01
  A 3.50 3.19 -6.0 0 1 438.67 206.54
  C 443.72 211.54 440.86 218.24 434.98 220.99
  Q 429.31 223.64 421.97 227.47
  Q 412.54 232.39 390.02 243.95
  C 383.49 247.30 377.52 251.25 371.42 253.74
  Q 366.92 255.58 362.74 251.98
  A 2.82 2.71 -84.8 0 1 362.09 251.17
  Q 359.54 246.34 361.81 242.23
  Q 363.19 239.73 369.10 236.87
  Q 376.10 233.49 394.65 224.01
  Q 400.97 220.79 403.18 219.89
  Q 407.53 218.13 411.64 215.65
  A 1.12 1.02 -31.7 0 0 412.06 214.18
  Q 411.86 213.85 411.00 213.95
  Z"
/>
<path fill="#0142f8" fill-opacity="0.996" d="
  M 216.30 211.59
  Q 215.61 211.79 215.46 211.46
  Q 215.08 210.62 215.90 210.16
  Q 223.52 205.93 257.64 186.79
  Q 262.22 184.22 263.01 182.74
  C 265.73 177.68 264.07 172.38 258.40 170.31
  C 255.53 169.27 253.71 170.48 251.01 172.05
  Q 212.18 194.53 191.78 206.82
  C 186.66 209.91 187.04 217.87 192.19 220.57
  Q 210.61 230.25 223.34 237.18
  Q 243.54 248.17 250.18 252.06
  C 255.43 255.14 262.66 253.82 264.09 247.48
  Q 265.36 241.84 259.96 239.08
  Q 227.64 222.57 215.13 215.37
  A 0.88 0.88 0.0 0 1 214.83 214.13
  Q 214.92 213.98 216.02 214.12
  Q 237.22 225.62 258.77 236.53
  Q 262.96 238.65 264.16 240.15
  C 268.08 245.04 265.96 250.82 261.08 254.19
  Q 256.32 257.47 251.35 254.66
  Q 227.57 241.22 195.80 224.44
  Q 190.40 221.59 189.47 220.71
  C 186.19 217.62 185.29 212.44 187.59 208.35
  Q 188.57 206.62 192.22 204.54
  Q 206.42 196.44 249.94 170.55
  Q 253.57 168.39 256.22 168.32
  C 263.58 168.10 268.93 176.75 264.85 183.22
  Q 263.59 185.22 257.30 188.83
  Q 235.95 201.07 219.56 210.06
  Q 217.97 210.94 216.30 211.59
  Z"
/>
<path fill="#1880fd" d="
  M 216.30 211.59
  L 215.24 212.37
  A 0.60 0.58 77.4 0 0 215.01 212.75
  Q 214.89 213.63 216.02 214.12
  Q 214.92 213.98 214.83 214.13
  A 0.88 0.88 0.0 0 0 215.13 215.37
  Q 227.64 222.57 259.96 239.08
  Q 265.36 241.84 264.09 247.48
  C 262.66 253.82 255.43 255.14 250.18 252.06
  Q 243.54 248.17 223.34 237.18
  Q 210.61 230.25 192.19 220.57
  C 187.04 217.87 186.66 209.91 191.78 206.82
  Q 212.18 194.53 251.01 172.05
  C 253.71 170.48 255.53 169.27 258.40 170.31
  C 264.07 172.38 265.73 177.68 263.01 182.74
  Q 262.22 184.22 257.64 186.79
  Q 223.52 205.93 215.90 210.16
  Q 215.08 210.62 215.46 211.46
  Q 215.61 211.79 216.30 211.59
  Z"
/>
<path fill="#048fc3" d="
  M 342.25 310.62
  A 7.83 7.83 0.0 0 1 334.42 318.45
  L 161.52 318.45
  A 7.83 7.83 0.0 0 1 153.69 310.62
  L 153.69 310.08
  A 7.83 7.83 0.0 0 1 161.52 302.25
  L 334.42 302.25
  A 7.83 7.83 0.0 0 1 342.25 310.08
  L 342.25 310.62
  Z
  M 340.39 309.90
  A 5.60 5.60 0.0 0 0 334.79 304.30
  L 161.15 304.30
  A 5.60 5.60 0.0 0 0 155.55 309.90
  L 155.55 311.32
  A 5.60 5.60 0.0 0 0 161.15 316.92
  L 334.79 316.92
  A 5.60 5.60 0.0 0 0 340.39 311.32
  L 340.39 309.90
  Z"
/>
<rect fill="#bebec1" x="-58.38" y="-7.64" transform="translate(417.17,310.62) rotate(0.1)" width="116.76" height="15.28" rx="7.52"/>
<rect fill="#1bb6d3" x="155.55" y="304.30" width="184.84" height="12.62" rx="5.60"/>
<path fill="#020204" fill-opacity="0.996" d="
  M 96.01 431.50
  Q 73.25 431.37 47.51 431.71
  C 43.17 431.76 40.78 429.58 38.30 426.02
  C 36.24 423.06 36.25 420.70 38.04 417.18
  Q 53.02 387.64 57.41 379.19
  Q 60.87 372.51 63.88 365.99
  A 3.56 3.54 -77.6 0 1 67.08 363.93
  C 128.43 363.55 185.33 364.00 240.98 363.72
  C 282.95 363.51 341.82 363.61 409.56 363.71
  Q 542.41 363.92 555.90 363.82
  C 559.37 363.80 563.62 362.77 565.71 366.33
  Q 567.86 369.97 568.82 371.97
  Q 579.27 393.76 588.73 413.03
  Q 592.21 420.12 591.99 422.10
  Q 591.48 426.82 586.97 430.35
  C 584.31 432.42 580.17 431.37 576.74 431.35
  Q 564.33 431.31 513.74 431.70
  C 473.78 432.00 439.67 431.44 394.65 431.39
  Q 254.29 431.26 191.26 431.51
  Q 134.11 431.74 96.01 431.50
  Z
  M 66.06 366.56
  A 1.70 1.62 -4.7 0 0 65.52 367.17
  Q 44.14 409.51 39.78 417.58
  Q 37.75 421.34 39.80 425.01
  Q 42.48 429.81 47.81 429.80
  Q 299.40 429.59 582.25 429.78
  Q 585.54 429.78 587.72 427.35
  C 590.72 424.00 590.08 420.05 588.14 416.14
  Q 581.96 403.72 564.74 368.20
  Q 563.57 365.78 560.51 365.78
  Q 256.14 365.78 67.31 365.79
  A 0.42 0.39 -61.2 0 0 67.07 365.87
  L 66.06 366.56
  Z"
/>
<path fill="#ffffff" d="
  M 66.06 366.56
  L 67.07 365.87
  A 0.42 0.39 -61.2 0 1 67.31 365.79
  Q 256.14 365.78 560.51 365.78
  Q 563.57 365.78 564.74 368.20
  Q 581.96 403.72 588.14 416.14
  C 590.08 420.05 590.72 424.00 587.72 427.35
  Q 585.54 429.78 582.25 429.78
  Q 299.40 429.59 47.81 429.80
  Q 42.48 429.81 39.80 425.01
  Q 37.75 421.34 39.78 417.58
  Q 44.14 409.51 65.52 367.17
  A 1.70 1.62 -4.7 0 1 66.06 366.56
  Z
  M 405.13 385.64
  A 1.88 1.88 0.0 0 0 403.40 384.50
  L 225.53 384.50
  A 1.88 1.88 0.0 0 0 223.81 385.61
  L 208.63 419.30
  A 1.88 1.88 0.0 0 0 210.35 421.95
  L 417.86 421.95
  A 1.88 1.88 0.0 0 0 419.59 419.33
  L 405.13 385.64
  Z"
/>
<path fill="#bebec1" d="
  M 405.13 385.64
  L 419.59 419.33
  A 1.88 1.88 0.0 0 1 417.86 421.95
  L 210.35 421.95
  A 1.88 1.88 0.0 0 1 208.63 419.30
  L 223.81 385.61
  A 1.88 1.88 0.0 0 1 225.53 384.50
  L 403.40 384.50
  A 1.88 1.88 0.0 0 1 405.13 385.64
  Z"
/>
<path fill="#020204" fill-opacity="0.996" d="
  M 28.26 443.08
  A 1.59 1.58 -73.4 0 1 29.59 442.35
  Q 123.41 442.66 219.75 442.64
  Q 378.84 442.61 579.00 442.64
  Q 586.34 442.64 597.00 442.43
  C 599.93 442.38 600.39 445.09 599.82 447.51
  C 598.56 452.85 594.83 456.79 590.59 459.64
  A 3.95 3.83 -70.7 0 1 589.65 460.11
  Q 582.47 462.54 579.00 462.54
  Q 513.71 462.60 440.96 462.54
  Q 436.04 462.53 431.25 462.54
  Q 221.12 462.83 115.00 462.48
  Q 78.83 462.36 49.43 462.79
  Q 45.83 462.85 39.00 460.34
  A 5.25 5.00 73.7 0 1 37.43 459.43
  C 32.24 455.09 29.15 452.29 27.77 446.45
  Q 27.32 444.56 28.26 443.08
  Z
  M 313.92 460.69
  Q 527.16 460.70 571.33 460.67
  Q 583.73 460.66 587.26 459.19
  Q 595.96 455.56 598.48 444.99
  A 0.48 0.48 0.0 0 0 597.99 444.40
  Q 597.28 444.42 595.50 444.46
  Q 591.38 444.56 313.92 444.55
  Q 36.46 444.53 32.34 444.43
  Q 30.57 444.39 29.86 444.37
  A 0.48 0.48 0.0 0 0 29.37 444.96
  Q 31.88 455.53 40.58 459.16
  Q 44.11 460.63 56.52 460.64
  Q 100.68 460.68 313.92 460.69
  Z"
/>
<path fill="#ffffff" d="
  M 313.92 444.55
  Q 591.38 444.56 595.50 444.46
  Q 597.28 444.42 597.99 444.40
  A 0.48 0.48 0.0 0 1 598.48 444.99
  Q 595.96 455.56 587.26 459.19
  Q 583.73 460.66 571.33 460.67
  Q 527.16 460.70 313.92 460.69
  Q 100.68 460.68 56.52 460.64
  Q 44.11 460.63 40.58 459.16
  Q 31.88 455.53 29.37 444.96
  A 0.48 0.48 0.0 0 1 29.86 444.37
  Q 30.57 444.39 32.34 444.43
  Q 36.46 444.53 313.92 444.55
  Z
  M 32.29 447.95
  Q 34.20 454.42 41.15 457.11
  Q 44.34 458.35 48.25 458.35
  Q 205.26 458.57 419.57 458.55
  Q 470.40 458.54 577.52 458.41
  C 585.56 458.40 593.16 456.87 595.33 447.99
  A 1.26 1.26 0.0 0 0 594.11 446.43
  L 33.43 446.43
  A 1.19 1.18 -8.2 0 0 32.29 447.95
  Z"
/>
<path fill="#bebec1" d="
  M 32.29 447.95
  A 1.19 1.18 -8.2 0 1 33.43 446.43
  L 594.11 446.43
  A 1.26 1.26 0.0 0 1 595.33 447.99
  C 593.16 456.87 585.56 458.40 577.52 458.41
  Q 470.40 458.54 419.57 458.55
  Q 205.26 458.57 48.25 458.35
  Q 44.34 458.35 41.15 457.11
  Q 34.20 454.42 32.29 447.95
  Z"
/>
</svg>
