<?xml version="1.0" encoding="UTF-8" standalone="no"?>
<!DOCTYPE svg PUBLIC "-//W3C//DTD SVG 1.1//EN" "http://www.w3.org/Graphics/SVG/1.1/DTD/svg11.dtd">
<svg xmlns="http://www.w3.org/2000/svg" version="1.1" viewBox="0.00 0.00 96.00 96.00">
<g stroke-width="2.00" fill="none" stroke-linecap="butt">
<path stroke="#43a2e9" vector-effect="non-scaling-stroke" d="
  M 52.97 3.23
  L 52.46 5.33"
/>
<path stroke="#3ba8e7" vector-effect="non-scaling-stroke" d="
  M 15.55 21.83
  L 14.03 23.99"
/>
<path stroke="#43a2e9" vector-effect="non-scaling-stroke" d="
  M 3.03 51.53
  Q 2.71 51.97 2.22 52.13
  Q 1.41 52.40 1.29 52.53
  Q 0.88 52.96 0.87 53.71"
/>
<path stroke="#826af1" vector-effect="non-scaling-stroke" d="
  M 11.73 90.87
  Q 10.69 91.76 10.57 92.97"
/>
<path stroke="#826af1" vector-effect="non-scaling-stroke" d="
  M 94.94 6.62
  Q 93.04 6.45 92.24 6.75"
/>
<path stroke="#c332f9" vector-effect="non-scaling-stroke" d="
  M 47.75 93.02
  Q 47.96 90.98 48.95 90.87"
/>
<path stroke="#c332f9" vector-effect="non-scaling-stroke" d="
  M 95.14 37.96
  Q 94.89 38.27 94.85 38.74
  A 0.15 0.14 -63.8 0 1 94.60 38.83
  Q 94.55 38.78 94.53 38.54
  Q 94.50 38.26 94.00 38.53
  Q 93.54 38.78 93.04 38.96"
/>
<path stroke="#7a70ee" vector-effect="non-scaling-stroke" d="
  M 71.72 24.00
  Q 71.12 22.75 70.03 21.83"
/>
<path stroke="#5493ec" vector-effect="non-scaling-stroke" d="
  M 34.65 30.26
  Q 33.15 30.75 32.94 31.42"
/>
<path stroke="#5493ec" vector-effect="non-scaling-stroke" d="
  M 18.34 45.69
  L 17.55 48.00"
/>
<path stroke="#955af4" vector-effect="non-scaling-stroke" d="
  M 74.93 28.62
  Q 75.97 28.66 76.75 29.00
  Q 77.38 29.27 77.27 29.80
  Q 77.18 30.25 76.72 30.77"
/>
<path stroke="#955af4" vector-effect="non-scaling-stroke" d="
  M 63.52 45.69
  L 62.21 47.33"
/>
<path stroke="#7676f2" vector-effect="non-scaling-stroke" d="
  M 52.44 39.52
  L 53.23 37.46"
/>
<path stroke="#955af4" vector-effect="non-scaling-stroke" d="
  M 41.59 68.68
  Q 42.99 68.24 43.32 67.66"
/>
<path stroke="#955af4" vector-effect="non-scaling-stroke" d="
  M 58.51 54.08
  L 60.33 53.20"
/>
</g>
<path fill="#23bde4" d="
  M 52.97 3.23
  L 52.46 5.33
  Q 29.74 5.36 7.00 5.43
  Q 3.72 5.44 3.27 8.24
  Q 2.77 11.36 3.12 21.31
  A 0.54 0.53 88.9 0 0 3.65 21.83
  L 15.55 21.83
  L 14.03 23.99
  L 3.60 24.12
  A 0.52 0.52 0.0 0 0 3.09 24.64
  L 3.03 51.53
  Q 2.71 51.97 2.22 52.13
  Q 1.41 52.40 1.29 52.53
  Q 0.88 52.96 0.87 53.71
  L 0.86 8.83
  A 2.84 2.63 -38.3 0 1 0.99 8.00
  C 2.63 2.55 6.42 3.25 12.05 3.23
  Q 32.50 3.15 52.97 3.23
  Z"
/>
<path fill="#6386ee" d="
  M 94.94 6.62
  Q 93.04 6.45 92.24 6.75
  Q 90.98 5.37 89.47 5.36
  Q 70.97 5.33 52.46 5.33
  L 52.97 3.23
  Q 71.23 3.13 89.50 3.31
  Q 92.35 3.33 94.94 6.62
  Z"
/>
<path fill="#a14ef3" d="
  M 94.94 6.62
  L 95.14 37.96
  Q 94.89 38.27 94.85 38.74
  A 0.15 0.14 -63.8 0 1 94.60 38.83
  Q 94.55 38.78 94.53 38.54
  Q 94.50 38.26 94.00 38.53
  Q 93.54 38.78 93.04 38.96
  L 92.93 24.56
  A 0.51 0.51 0.0 0 0 92.42 24.06
  L 71.72 24.00
  Q 71.12 22.75 70.03 21.83
  L 92.67 21.84
  A 0.37 0.37 0.0 0 0 93.04 21.47
  L 93.04 8.93
  A 2.14 2.13 33.0 0 0 92.85 8.05
  L 92.24 6.75
  Q 93.04 6.45 94.94 6.62
  Z"
/>
<path fill="#23bde4" d="
  M 18.43 13.60
  A 4.66 4.66 0.0 0 1 13.77 18.26
  A 4.66 4.66 0.0 0 1 9.11 13.60
  A 4.66 4.66 0.0 0 1 13.77 8.94
  A 4.66 4.66 0.0 0 1 18.43 13.60
  Z
  M 16.29 13.61
  A 2.52 2.52 0.0 0 0 13.77 11.09
  A 2.52 2.52 0.0 0 0 11.25 13.61
  A 2.52 2.52 0.0 0 0 13.77 16.13
  A 2.52 2.52 0.0 0 0 16.29 13.61
  Z"
/>
<path fill="#23bde4" d="
  M 31.68 13.59
  A 4.65 4.65 0.0 0 1 27.03 18.24
  A 4.65 4.65 0.0 0 1 22.38 13.59
  A 4.65 4.65 0.0 0 1 27.03 8.94
  A 4.65 4.65 0.0 0 1 31.68 13.59
  Z
  M 29.57 13.59
  A 2.53 2.53 0.0 0 0 27.04 11.06
  A 2.53 2.53 0.0 0 0 24.51 13.59
  A 2.53 2.53 0.0 0 0 27.04 16.12
  A 2.53 2.53 0.0 0 0 29.57 13.59
  Z"
/>
<path fill="#44a0e9" d="
  M 44.98 13.60
  A 4.66 4.66 0.0 0 1 40.32 18.26
  A 4.66 4.66 0.0 0 1 35.66 13.60
  A 4.66 4.66 0.0 0 1 40.32 8.94
  A 4.66 4.66 0.0 0 1 44.98 13.60
  Z
  M 42.85 13.60
  A 2.52 2.52 0.0 0 0 40.33 11.08
  A 2.52 2.52 0.0 0 0 37.81 13.60
  A 2.52 2.52 0.0 0 0 40.33 16.12
  A 2.52 2.52 0.0 0 0 42.85 13.60
  Z"
/>
<path fill="#8866f5" d="
  M 84.63 12.48
  L 86.37 12.84
  A 0.78 0.78 0.0 0 1 86.37 14.36
  L 84.63 14.72
  A 0.78 0.78 0.0 0 0 84.02 15.33
  L 83.66 17.07
  A 0.78 0.78 0.0 0 1 82.14 17.07
  L 81.78 15.33
  A 0.78 0.78 0.0 0 0 81.17 14.72
  L 79.43 14.36
  A 0.78 0.78 0.0 0 1 79.43 12.84
  L 81.17 12.48
  A 0.78 0.78 0.0 0 0 81.78 11.87
  L 82.14 10.13
  A 0.78 0.78 0.0 0 1 83.66 10.13
  L 84.02 11.87
  A 0.78 0.78 0.0 0 0 84.63 12.48
  Z"
/>
<rect fill="#6386ee" x="-11.84" y="-1.08" transform="translate(61.96,13.58) rotate(-0.1)" width="23.68" height="2.16" rx="1.06"/>
<path fill="#5392e9" d="
  M 70.03 21.83
  Q 71.12 22.75 71.72 24.00
  L 14.03 23.99
  L 15.55 21.83
  L 70.03 21.83
  Z"
/>
<path fill="#44a0e9" d="
  M 34.65 30.26
  Q 33.15 30.75 32.94 31.42
  L 31.97 30.98
  A 2.34 2.33 -32.3 0 0 30.98 30.76
  L 19.71 30.76
  A 2.00 1.99 -90.0 0 0 17.72 32.76
  L 17.72 44.27
  A 1.69 1.66 -62.9 0 0 18.02 45.23
  L 18.34 45.69
  L 17.55 48.00
  Q 15.70 46.07 15.63 44.82
  Q 15.50 42.49 15.61 32.38
  A 2.29 2.09 59.8 0 1 15.79 31.55
  Q 17.02 28.74 19.31 28.67
  Q 23.98 28.51 31.79 28.64
  Q 32.78 28.66 34.65 30.26
  Z"
/>
<path fill="#8866f5" d="
  M 74.93 28.62
  Q 75.97 28.66 76.75 29.00
  Q 77.38 29.27 77.27 29.80
  Q 77.18 30.25 76.72 30.77
  L 64.73 30.80
  A 1.87 1.87 0.0 0 0 62.86 32.67
  L 62.86 44.28
  A 1.62 1.58 -63.8 0 0 63.17 45.23
  L 63.52 45.69
  L 62.21 47.33
  C 60.16 45.83 60.70 42.32 60.66 40.06
  A 0.51 0.51 0.0 0 0 60.15 39.56
  L 52.44 39.52
  L 53.23 37.46
  L 60.14 37.41
  A 0.59 0.58 -1.4 0 0 60.72 36.81
  C 60.64 32.24 60.20 28.66 66.17 28.60
  Q 70.57 28.56 74.93 28.62
  Z"
/>
<path fill="#a14ef3" d="
  M 41.59 68.68
  Q 42.99 68.24 43.32 67.66
  Q 44.38 68.41 45.75 68.42
  Q 51.38 68.47 56.78 68.42
  A 1.78 1.78 0.0 0 0 58.54 66.64
  L 58.51 54.08
  L 60.33 53.20
  Q 61.10 56.02 60.73 57.72
  A 1.39 1.39 0.0 0 0 62.09 59.41
  L 68.26 59.41
  A 1.24 1.24 0.0 0 0 69.50 58.17
  L 69.50 49.02
  A 0.59 0.59 0.0 0 0 68.96 48.43
  C 66.79 48.22 64.18 48.99 62.21 47.33
  L 63.52 45.69
  Q 64.07 46.16 64.75 46.17
  Q 72.51 46.32 76.43 46.19
  A 1.95 1.95 0.0 0 0 78.32 44.26
  Q 78.37 39.57 78.33 32.99
  C 78.32 31.85 77.76 31.12 76.72 30.77
  Q 77.18 30.25 77.27 29.80
  Q 77.38 29.27 76.75 29.00
  Q 75.97 28.66 74.93 28.62
  C 78.71 28.27 80.46 30.23 80.46 33.99
  Q 80.48 43.37 80.44 44.00
  C 80.13 49.14 75.84 48.34 72.22 48.43
  A 0.58 0.58 0.0 0 0 71.65 49.01
  L 71.65 60.29
  A 1.27 1.26 -90.0 0 1 70.39 61.56
  L 61.24 61.56
  A 0.54 0.54 0.0 0 0 60.70 62.13
  C 60.99 66.66 61.25 70.58 55.46 70.61
  Q 51.66 70.63 45.00 70.53
  Q 43.17 70.51 41.59 68.68
  Z"
/>
<path fill="#6386ee" d="
  M 34.65 30.26
  Q 35.61 33.26 35.42 36.93
  A 0.47 0.47 0.0 0 0 35.89 37.43
  L 53.23 37.46
  L 52.44 39.52
  L 35.99 39.54
  A 0.63 0.63 0.0 0 0 35.36 40.12
  C 35.05 44.03 36.27 48.25 30.50 48.40
  Q 22.95 48.59 17.55 48.00
  L 18.34 45.69
  L 18.79 45.97
  A 1.79 1.73 59.5 0 0 19.69 46.22
  L 31.27 46.22
  A 1.89 1.89 0.0 0 0 33.16 44.30
  L 32.94 31.42
  Q 33.15 30.75 34.65 30.26
  Z"
/>
<path fill="#e416fe" d="
  M 95.14 37.96
  Q 95.21 61.49 95.17 85.02
  C 95.16 90.35 93.54 92.98 88.22 93.01
  Q 68.02 93.11 47.75 93.02
  Q 47.96 90.98 48.95 90.87
  Q 69.11 90.85 89.25 90.86
  C 92.33 90.86 93.04 88.43 93.04 85.64
  Q 93.06 62.30 93.04 38.96
  Q 93.54 38.78 94.00 38.53
  Q 94.50 38.26 94.53 38.54
  Q 94.55 38.78 94.60 38.83
  A 0.15 0.14 -63.8 0 0 94.85 38.74
  Q 94.89 38.27 95.14 37.96
  Z"
/>
<path fill="#8866f5" d="
  M 60.33 53.20
  L 58.51 54.08
  Q 57.70 52.96 56.50 52.95
  Q 50.60 52.92 45.01 52.98
  A 1.87 1.87 0.0 0 0 43.16 54.87
  L 43.32 67.66
  Q 42.99 68.24 41.59 68.68
  Q 40.72 66.11 40.86 62.85
  A 0.52 0.52 0.0 0 0 40.34 62.31
  L 26.99 62.31
  A 0.44 0.43 0.0 0 0 26.55 62.74
  L 26.55 66.47
  A 0.45 0.44 -0.6 0 0 27.01 66.91
  Q 31.19 66.78 31.96 67.04
  Q 35.20 68.12 35.26 70.55
  Q 35.40 76.51 35.34 82.01
  Q 35.30 85.60 32.07 86.58
  A 2.53 2.33 34.9 0 1 31.41 86.67
  L 19.39 86.67
  A 0.96 0.66 -28.7 0 1 19.20 86.65
  Q 15.80 85.68 15.67 82.95
  Q 15.52 79.97 15.55 72.23
  C 15.58 66.04 19.52 67.11 23.78 66.89
  A 0.67 0.67 0.0 0 0 24.42 66.22
  L 24.42 61.13
  A 0.98 0.98 0.0 0 1 25.40 60.15
  L 40.44 60.15
  A 0.53 0.53 0.0 0 0 40.97 59.62
  L 40.97 54.42
  A 1.42 1.30 60.9 0 1 41.12 53.79
  Q 42.58 50.93 44.67 50.87
  Q 48.66 50.75 56.49 50.84
  Q 59.06 50.88 60.33 53.20
  Z
  M 33.1703 71.1230
  A 2.10 2.10 0.0 0 0 31.0629 69.0304
  L 19.7830 69.0697
  A 2.10 2.10 0.0 0 0 17.6904 71.1771
  L 17.7297 82.4570
  A 2.10 2.10 0.0 0 0 19.8371 84.5496
  L 31.1170 84.5103
  A 2.10 2.10 0.0 0 0 33.2096 82.4029
  L 33.1703 71.1230
  Z"
/>
<path fill="#6386ee" d="
  M 3.03 51.53
  Q 3.05 69.27 3.02 87.00
  C 3.01 91.80 8.75 90.87 11.73 90.87
  Q 10.69 91.76 10.57 92.97
  Q 2.70 94.16 0.98 88.19
  A 2.86 2.75 -54.2 0 1 0.87 87.41
  L 0.87 53.71
  Q 0.88 52.96 1.29 52.53
  Q 1.41 52.40 2.22 52.13
  Q 2.71 51.97 3.03 51.53
  Z"
/>
<path fill="#a14ef3" d="
  M 48.95 90.87
  Q 47.96 90.98 47.75 93.02
  L 10.57 92.97
  Q 10.69 91.76 11.73 90.87
  L 48.95 90.87
  Z"
/>
</svg>
