<?xml version="1.0" encoding="UTF-8" standalone="no"?>
<!DOCTYPE svg PUBLIC "-//W3C//DTD SVG 1.1//EN" "http://www.w3.org/Graphics/SVG/1.1/DTD/svg11.dtd">
<svg xmlns="http://www.w3.org/2000/svg" version="1.1" viewBox="0.00 0.00 617.00 521.00">
<g stroke-width="2.00" fill="none" stroke-linecap="butt">
<path stroke="#17303e" vector-effect="non-scaling-stroke" d="
  M 575.04 357.84
  Q 575.38 357.95 575.65 357.88
  A 0.23 0.21 83.6 0 0 575.81 357.66
  L 575.81 115.75
  A 0.29 0.29 0.0 0 0 575.38 115.49
  Q 575.00 115.69 575.05 115.98"
/>
<path stroke="#17303e" vector-effect="non-scaling-stroke" d="
  M 23.68 366.18
  L 23.67 67.84"
/>
<path stroke="#216082" vector-effect="non-scaling-stroke" d="
  M 68.95 264.54
  L 68.94 263.54"
/>
<path stroke="#337ea7" vector-effect="non-scaling-stroke" d="
  M 68.93 258.29
  Q 69.09 257.54 68.90 256.79"
/>
<path stroke="#337ea7" vector-effect="non-scaling-stroke" d="
  M 68.91 226.04
  Q 69.11 225.48 68.91 224.96"
/>
<path stroke="#28adde" vector-effect="non-scaling-stroke" d="
  M 68.88 176.04
  Q 69.02 175.33 68.89 174.71"
/>
<path stroke="#28adde" vector-effect="non-scaling-stroke" d="
  M 68.98 170.31
  Q 69.26 168.83 68.95 167.46"
/>
<path stroke="#17303e" vector-effect="non-scaling-stroke" d="
  M 341.95 157.06
  Q 343.36 157.43 344.79 157.08"
/>
<path stroke="#17303e" vector-effect="non-scaling-stroke" d="
  M 575.78 115.17
  Q 576.22 114.76 576.71 115.25
  A 0.75 0.70 -69.6 0 1 576.93 115.78
  L 576.96 369.27
  A 1.02 0.95 -43.0 0 1 576.95 369.41
  Q 575.34 376.73 573.56 379.53
  Q 568.53 387.42 559.81 390.26
  A 3.84 3.75 -55.2 0 1 558.87 390.44
  Q 554.66 390.73 547.26 390.80
  Q 520.10 391.07 491.48 390.64
  C 486.00 390.56 481.07 391.12 475.62 390.61
  A 0.63 0.63 0.0 0 0 475.13 391.69
  Q 476.08 392.57 480.59 396.90
  C 484.97 401.11 487.73 401.09 493.25 401.09
  Q 548.09 401.09 555.50 401.01
  Q 559.91 400.97 564.50 399.18
  Q 578.75 393.62 584.67 380.04
  Q 586.94 374.84 586.93 370.48
  Q 586.76 180.86 586.95 132.25
  Q 587.06 100.63 586.93 71.08
  Q 586.88 60.92 586.58 58.95
  C 584.70 46.90 577.74 37.15 565.74 33.59
  Q 560.17 31.94 558.61 31.95
  Q 531.62 32.12 462.88 32.12
  Q 227.92 32.11 116.50 32.16
  Q 67.59 32.19 57.51 31.91
  Q 47.46 31.63 40.67 35.47
  Q 29.80 41.62 26.16 52.79
  Q 24.85 56.81 24.87 65.13
  Q 25.10 163.38 24.98 362.25
  Q 24.97 369.87 25.19 374.78
  A 4.19 4.02 37.5 0 0 25.32 375.63
  Q 29.30 390.73 43.03 397.45
  Q 49.87 400.79 52.22 400.86
  Q 60.06 401.09 61.50 401.08
  Q 92.94 401.00 128.01 401.14
  Q 132.19 401.16 135.02 398.24
  Q 138.18 394.99 141.63 392.17
  A 0.65 0.65 0.0 0 0 141.43 391.06
  Q 140.89 390.87 140.25 390.87
  Q 77.85 390.97 55.74 390.82
  Q 49.89 390.78 44.92 387.20
  C 39.63 383.39 35.06 377.64 35.01 371.29
  Q 34.69 332.10 35.01 278.25
  Q 35.18 249.20 34.96 216.87
  Q 34.76 185.31 35.00 129.26
  Q 35.04 121.68 34.76 118.66
  A 1.16 1.11 -43.9 0 1 34.77 118.40
  L 35.25 115.71
  A 0.82 0.81 -87.6 0 1 35.97 115.04
  C 37.48 114.88 38.54 114.57 40.36 114.60
  Q 65.60 115.03 87.43 114.77
  C 98.40 114.64 114.29 115.23 123.46 114.91
  Q 140.61 114.32 146.32 114.76
  C 149.54 115.01 151.77 114.50 155.70 114.82
  A 7.36 7.17 -45.8 0 0 157.22 114.78
  Q 160.13 114.41 163.33 114.77
  A 5.16 4.92 32.6 0 0 164.05 114.80
  Q 173.30 114.38 178.77 114.76
  Q 182.65 115.03 183.84 114.70
  A 2.33 2.21 40.4 0 1 184.76 114.65
  C 188.14 115.18 191.78 114.48 194.75 114.71
  Q 195.00 114.73 214.50 114.67
  Q 267.81 114.52 279.91 114.58
  C 281.68 114.59 283.51 114.86 285.25 114.86
  Q 314.51 114.91 343.32 114.58
  C 344.24 114.57 345.52 114.89 346.52 114.88
  Q 381.01 114.76 401.38 114.95
  Q 410.66 115.03 419.12 114.87
  C 430.92 114.63 442.22 114.96 453.12 114.85
  Q 468.97 114.70 469.38 114.61
  Q 470.38 114.39 488.17 115.16
  Q 497.92 115.58 507.57 114.89
  Q 507.79 114.88 508.16 114.98
  Q 508.61 115.10 508.75 115.09
  Q 520.30 114.65 530.53 114.87
  Q 536.58 115.00 552.32 114.79
  Q 560.30 114.69 574.38 114.96
  Q 574.71 114.96 575.19 115.24
  A 0.51 0.50 -51.7 0 0 575.78 115.17"
/>
<path stroke="#17303e" vector-effect="non-scaling-stroke" d="
  M 305.80 105.40
  Q 319.76 105.39 334.52 105.40
  Q 394.65 105.40 477.23 105.42
  Q 565.85 105.44 573.55 105.41
  A 2.24 2.23 0.4 0 0 575.78 103.22
  Q 576.16 82.34 575.88 61.52
  C 575.77 52.39 569.90 44.80 561.36 42.07
  Q 558.84 41.27 550.56 41.30
  Q 542.28 41.33 305.78 41.37
  Q 69.29 41.41 61.01 41.39
  Q 52.73 41.36 50.21 42.16
  C 41.67 44.90 35.80 52.49 35.70 61.62
  Q 35.42 82.44 35.81 103.32
  A 2.24 2.23 -0.4 0 0 38.04 105.51
  Q 45.74 105.53 134.36 105.48
  Q 216.94 105.43 277.07 105.41
  Q 291.83 105.40 305.80 105.40"
/>
<path stroke="#72818a" vector-effect="non-scaling-stroke" d="
  M 305.72 104.08
  Q 569.83 104.10 574.03 104.11
  A 0.52 0.52 0.0 0 0 574.56 103.59
  Q 574.54 90.21 574.61 70.60
  Q 574.65 58.49 573.87 55.98
  C 571.75 49.22 565.28 43.13 557.76 42.91
  Q 551.17 42.72 543.00 42.74
  Q 515.87 42.81 305.73 42.79
  Q 95.59 42.78 68.45 42.72
  Q 60.28 42.69 53.69 42.88
  C 46.17 43.10 39.70 49.19 37.58 55.95
  Q 36.80 58.46 36.84 70.57
  Q 36.91 90.18 36.89 103.56
  A 0.52 0.52 0.0 0 0 37.41 104.08
  Q 41.62 104.06 305.72 104.08"
/>
<path stroke="#78cee6" vector-effect="non-scaling-stroke" d="
  M 89.83 74.41
  A 12.84 12.84 0.0 0 0 76.99 61.57
  A 12.84 12.84 0.0 0 0 64.15 74.41
  A 12.84 12.84 0.0 0 0 76.99 87.25
  A 12.84 12.84 0.0 0 0 89.83 74.41"
/>
<path stroke="#78cee6" vector-effect="non-scaling-stroke" d="
  M 134.41 74.30
  A 12.76 12.76 0.0 0 0 121.65 61.54
  A 12.76 12.76 0.0 0 0 108.89 74.30
  A 12.76 12.76 0.0 0 0 121.65 87.06
  A 12.76 12.76 0.0 0 0 134.41 74.30"
/>
<path stroke="#72818a" vector-effect="non-scaling-stroke" d="
  M 180.00 74.47
  A 13.09 13.09 0.0 0 0 166.91 61.38
  A 13.09 13.09 0.0 0 0 153.82 74.47
  A 13.09 13.09 0.0 0 0 166.91 87.56
  A 13.09 13.09 0.0 0 0 180.00 74.47"
/>
<path stroke="#17303e" vector-effect="non-scaling-stroke" d="
  M 178.91 74.49
  A 12.02 12.02 0.0 0 0 166.89 62.47
  A 12.02 12.02 0.0 0 0 154.87 74.49
  A 12.02 12.02 0.0 0 0 166.89 86.51
  A 12.02 12.02 0.0 0 0 178.91 74.49"
/>
<path stroke="#17303e" vector-effect="non-scaling-stroke" d="
  M 542.68 169.80
  A 11.18 11.18 0.0 0 0 531.50 158.62
  L 265.44 158.62
  A 11.18 11.18 0.0 0 0 254.26 169.80
  L 254.26 170.62
  A 11.18 11.18 0.0 0 0 265.44 181.80
  L 531.50 181.80
  A 11.18 11.18 0.0 0 0 542.68 170.62
  L 542.68 169.80"
/>
<path stroke="#17303e" vector-effect="non-scaling-stroke" d="
  M 477.74 417.60
  Q 478.39 414.29 475.89 411.81
  C 469.39 405.35 462.09 399.99 454.79 393.62
  C 446.66 386.53 439.13 379.70 431.18 373.05
  Q 426.84 369.42 421.70 364.87
  Q 416.64 360.39 406.33 351.76
  Q 404.58 350.30 402.12 348.91
  A 4.35 4.35 0.0 0 0 398.68 348.54
  Q 390.80 350.99 391.06 359.17
  A 2.40 2.32 -58.7 0 0 391.27 360.10
  Q 392.17 362.14 393.47 363.30
  Q 404.59 373.18 419.47 386.15
  Q 425.67 391.55 429.06 394.38
  Q 435.60 399.83 438.83 402.77
  Q 445.49 408.85 447.72 410.32
  C 451.46 412.79 452.57 416.49 449.90 420.06
  A 1.68 1.63 89.2 0 1 449.57 420.41
  Q 424.77 439.98 402.77 457.02
  Q 397.75 460.91 394.60 463.57
  Q 390.12 467.33 391.07 471.54
  A 4.05 3.94 -65.3 0 0 391.42 472.53
  C 393.85 477.38 400.44 480.85 405.46 477.68
  C 410.70 474.39 414.21 470.94 420.16 466.38
  Q 427.70 460.60 437.98 451.88
  C 448.22 443.20 462.19 432.57 469.34 426.85
  Q 476.19 421.36 477.44 418.56
  A 4.47 3.89 -31.6 0 0 477.74 417.60"
/>
<path stroke="#17303e" vector-effect="non-scaling-stroke" d="
  M 173.66 414.16
  C 179.89 409.26 185.64 403.56 191.62 398.60
  C 203.42 388.83 217.79 375.63 225.69 368.68
  Q 231.02 363.99 232.03 362.52
  Q 233.62 360.23 233.59 357.22
  C 233.53 352.54 227.78 349.16 223.73 349.28
  A 2.40 2.40 0.0 0 0 222.71 349.55
  Q 219.88 351.05 217.68 353.26
  C 212.55 358.43 206.52 363.19 204.08 365.60
  Q 202.69 366.98 199.98 368.88
  C 196.96 370.99 193.58 374.47 190.98 376.69
  Q 153.60 408.48 149.27 412.23
  Q 143.18 417.51 148.07 423.84
  A 2.90 2.90 0.0 0 0 148.42 424.19
  Q 153.24 428.02 180.47 449.89
  Q 191.33 458.61 197.35 462.98
  Q 204.78 468.37 214.63 476.85
  Q 217.27 479.12 219.94 478.90
  Q 227.60 478.24 229.27 471.03
  C 230.11 467.40 226.75 464.44 224.11 462.44
  Q 212.16 453.38 203.27 446.00
  Q 196.68 440.53 191.15 436.34
  Q 182.90 430.10 178.89 426.59
  C 175.50 423.62 169.16 420.54 173.22 414.62
  A 2.17 1.92 -4.7 0 1 173.66 414.16"
/>
</g>
<path fill="#061219" d="
  M 575.04 357.84
  Q 575.38 357.95 575.65 357.88
  A 0.23 0.21 83.6 0 0 575.81 357.66
  L 575.81 115.75
  A 0.29 0.29 0.0 0 0 575.38 115.49
  Q 575.00 115.69 575.05 115.98
  L 36.76 115.94
  A 0.78 0.77 -0.0 0 0 35.98 116.71
  Q 35.93 333.44 36.01 368.25
  Q 36.03 377.43 42.69 383.53
  Q 48.87 389.18 57.00 389.16
  Q 106.81 388.99 145.85 389.11
  A 0.61 0.61 0.0 0 1 146.25 390.17
  Q 141.46 394.41 135.40 399.83
  Q 131.96 402.91 126.51 402.92
  Q 58.79 403.06 54.75 402.79
  Q 49.94 402.48 42.95 399.28
  Q 28.35 392.61 24.04 376.50
  Q 22.54 370.89 23.68 366.18
  L 23.67 67.84
  Q 22.27 58.62 25.43 50.92
  Q 31.09 37.17 45.12 32.17
  Q 50.14 30.38 54.50 30.38
  Q 269.64 30.32 555.27 30.36
  C 563.70 30.36 573.96 34.24 579.71 40.59
  Q 584.87 46.29 586.96 53.62
  Q 588.06 57.45 588.06 68.48
  Q 588.09 309.73 588.10 360.00
  C 588.10 365.43 588.46 372.08 587.03 377.06
  C 583.44 389.53 573.64 398.69 561.04 401.95
  Q 556.94 403.01 549.89 402.99
  Q 508.35 402.86 492.38 403.01
  Q 487.81 403.05 485.71 402.15
  Q 482.76 400.88 480.08 398.42
  Q 476.68 395.32 471.13 390.00
  A 0.53 0.53 0.0 0 1 471.50 389.09
  Q 525.08 389.05 555.25 389.08
  Q 558.29 389.08 561.18 387.90
  Q 573.93 382.65 574.96 369.25
  Q 575.16 366.68 575.04 357.84
  Z
  M 575.78 115.17
  Q 576.22 114.76 576.71 115.25
  A 0.75 0.70 -69.6 0 1 576.93 115.78
  L 576.96 369.27
  A 1.02 0.95 -43.0 0 1 576.95 369.41
  Q 575.34 376.73 573.56 379.53
  Q 568.53 387.42 559.81 390.26
  A 3.84 3.75 -55.2 0 1 558.87 390.44
  Q 554.66 390.73 547.26 390.80
  Q 520.10 391.07 491.48 390.64
  C 486.00 390.56 481.07 391.12 475.62 390.61
  A 0.63 0.63 0.0 0 0 475.13 391.69
  Q 476.08 392.57 480.59 396.90
  C 484.97 401.11 487.73 401.09 493.25 401.09
  Q 548.09 401.09 555.50 401.01
  Q 559.91 400.97 564.50 399.18
  Q 578.75 393.62 584.67 380.04
  Q 586.94 374.84 586.93 370.48
  Q 586.76 180.86 586.95 132.25
  Q 587.06 100.63 586.93 71.08
  Q 586.88 60.92 586.58 58.95
  C 584.70 46.90 577.74 37.15 565.74 33.59
  Q 560.17 31.94 558.61 31.95
  Q 531.62 32.12 462.88 32.12
  Q 227.92 32.11 116.50 32.16
  Q 67.59 32.19 57.51 31.91
  Q 47.46 31.63 40.67 35.47
  Q 29.80 41.62 26.16 52.79
  Q 24.85 56.81 24.87 65.13
  Q 25.10 163.38 24.98 362.25
  Q 24.97 369.87 25.19 374.78
  A 4.19 4.02 37.5 0 0 25.32 375.63
  Q 29.30 390.73 43.03 397.45
  Q 49.87 400.79 52.22 400.86
  Q 60.06 401.09 61.50 401.08
  Q 92.94 401.00 128.01 401.14
  Q 132.19 401.16 135.02 398.24
  Q 138.18 394.99 141.63 392.17
  A 0.65 0.65 0.0 0 0 141.43 391.06
  Q 140.89 390.87 140.25 390.87
  Q 77.85 390.97 55.74 390.82
  Q 49.89 390.78 44.92 387.20
  C 39.63 383.39 35.06 377.64 35.01 371.29
  Q 34.69 332.10 35.01 278.25
  Q 35.18 249.20 34.96 216.87
  Q 34.76 185.31 35.00 129.26
  Q 35.04 121.68 34.76 118.66
  A 1.16 1.11 -43.9 0 1 34.77 118.40
  L 35.25 115.71
  A 0.82 0.81 -87.6 0 1 35.97 115.04
  C 37.48 114.88 38.54 114.57 40.36 114.60
  Q 65.60 115.03 87.43 114.77
  C 98.40 114.64 114.29 115.23 123.46 114.91
  Q 140.61 114.32 146.32 114.76
  C 149.54 115.01 151.77 114.50 155.70 114.82
  A 7.36 7.17 -45.8 0 0 157.22 114.78
  Q 160.13 114.41 163.33 114.77
  A 5.16 4.92 32.6 0 0 164.05 114.80
  Q 173.30 114.38 178.77 114.76
  Q 182.65 115.03 183.84 114.70
  A 2.33 2.21 40.4 0 1 184.76 114.65
  C 188.14 115.18 191.78 114.48 194.75 114.71
  Q 195.00 114.73 214.50 114.67
  Q 267.81 114.52 279.91 114.58
  C 281.68 114.59 283.51 114.86 285.25 114.86
  Q 314.51 114.91 343.32 114.58
  C 344.24 114.57 345.52 114.89 346.52 114.88
  Q 381.01 114.76 401.38 114.95
  Q 410.66 115.03 419.12 114.87
  C 430.92 114.63 442.22 114.96 453.12 114.85
  Q 468.97 114.70 469.38 114.61
  Q 470.38 114.39 488.17 115.16
  Q 497.92 115.58 507.57 114.89
  Q 507.79 114.88 508.16 114.98
  Q 508.61 115.10 508.75 115.09
  Q 520.30 114.65 530.53 114.87
  Q 536.58 115.00 552.32 114.79
  Q 560.30 114.69 574.38 114.96
  Q 574.71 114.96 575.19 115.24
  A 0.51 0.50 -51.7 0 0 575.78 115.17
  Z"
/>
<path fill="#294f64" fill-opacity="0.996" d="
  M 575.19 115.24
  Q 574.71 114.96 574.38 114.96
  Q 560.30 114.69 552.32 114.79
  Q 536.58 115.00 530.53 114.87
  Q 520.30 114.65 508.75 115.09
  Q 508.61 115.10 508.16 114.98
  Q 507.79 114.88 507.57 114.89
  Q 497.92 115.58 488.17 115.16
  Q 470.38 114.39 469.38 114.61
  Q 468.97 114.70 453.12 114.85
  C 442.22 114.96 430.92 114.63 419.12 114.87
  Q 410.66 115.03 401.38 114.95
  Q 381.01 114.76 346.52 114.88
  C 345.52 114.89 344.24 114.57 343.32 114.58
  Q 314.51 114.91 285.25 114.86
  C 283.51 114.86 281.68 114.59 279.91 114.58
  Q 267.81 114.52 214.50 114.67
  Q 195.00 114.73 194.75 114.71
  C 191.78 114.48 188.14 115.18 184.76 114.65
  A 2.33 2.21 40.4 0 0 183.84 114.70
  Q 182.65 115.03 178.77 114.76
  Q 173.30 114.38 164.05 114.80
  A 5.16 4.92 32.6 0 1 163.33 114.77
  Q 160.13 114.41 157.22 114.78
  A 7.36 7.17 -45.8 0 1 155.70 114.82
  C 151.77 114.50 149.54 115.01 146.32 114.76
  Q 140.61 114.32 123.46 114.91
  C 114.29 115.23 98.40 114.64 87.43 114.77
  Q 65.60 115.03 40.36 114.60
  C 38.54 114.57 37.48 114.88 35.97 115.04
  A 0.82 0.81 -87.6 0 0 35.25 115.71
  L 34.77 118.40
  A 1.16 1.11 -43.9 0 0 34.76 118.66
  Q 35.04 121.68 35.00 129.26
  Q 34.76 185.31 34.96 216.87
  Q 35.18 249.20 35.01 278.25
  Q 34.69 332.10 35.01 371.29
  C 35.06 377.64 39.63 383.39 44.92 387.20
  Q 49.89 390.78 55.74 390.82
  Q 77.85 390.97 140.25 390.87
  Q 140.89 390.87 141.43 391.06
  A 0.65 0.65 0.0 0 1 141.63 392.17
  Q 138.18 394.99 135.02 398.24
  Q 132.19 401.16 128.01 401.14
  Q 92.94 401.00 61.50 401.08
  Q 60.06 401.09 52.22 400.86
  Q 49.87 400.79 43.03 397.45
  Q 29.30 390.73 25.32 375.63
  A 4.19 4.02 37.5 0 1 25.19 374.78
  Q 24.97 369.87 24.98 362.25
  Q 25.10 163.38 24.87 65.13
  Q 24.85 56.81 26.16 52.79
  Q 29.80 41.62 40.67 35.47
  Q 47.46 31.63 57.51 31.91
  Q 67.59 32.19 116.50 32.16
  Q 227.92 32.11 462.88 32.12
  Q 531.62 32.12 558.61 31.95
  Q 560.17 31.94 565.74 33.59
  C 577.74 37.15 584.70 46.90 586.58 58.95
  Q 586.88 60.92 586.93 71.08
  Q 587.06 100.63 586.95 132.25
  Q 586.76 180.86 586.93 370.48
  Q 586.94 374.84 584.67 380.04
  Q 578.75 393.62 564.50 399.18
  Q 559.91 400.97 555.50 401.01
  Q 548.09 401.09 493.25 401.09
  C 487.73 401.09 484.97 401.11 480.59 396.90
  Q 476.08 392.57 475.13 391.69
  A 0.63 0.63 0.0 0 1 475.62 390.61
  C 481.07 391.12 486.00 390.56 491.48 390.64
  Q 520.10 391.07 547.26 390.80
  Q 554.66 390.73 558.87 390.44
  A 3.84 3.75 -55.2 0 0 559.81 390.26
  Q 568.53 387.42 573.56 379.53
  Q 575.34 376.73 576.95 369.41
  A 1.02 0.95 -43.0 0 0 576.96 369.27
  L 576.93 115.78
  A 0.75 0.70 -69.6 0 0 576.71 115.25
  Q 576.22 114.76 575.78 115.17
  A 0.51 0.50 -51.7 0 1 575.19 115.24
  Z
  M 305.80 105.40
  Q 319.76 105.39 334.52 105.40
  Q 394.65 105.40 477.23 105.42
  Q 565.85 105.44 573.55 105.41
  A 2.24 2.23 0.4 0 0 575.78 103.22
  Q 576.16 82.34 575.88 61.52
  C 575.77 52.39 569.90 44.80 561.36 42.07
  Q 558.84 41.27 550.56 41.30
  Q 542.28 41.33 305.78 41.37
  Q 69.29 41.41 61.01 41.39
  Q 52.73 41.36 50.21 42.16
  C 41.67 44.90 35.80 52.49 35.70 61.62
  Q 35.42 82.44 35.81 103.32
  A 2.24 2.23 -0.4 0 0 38.04 105.51
  Q 45.74 105.53 134.36 105.48
  Q 216.94 105.43 277.07 105.41
  Q 291.83 105.40 305.80 105.40
  Z"
/>
<path fill="#061219" d="
  M 305.78 41.37
  Q 542.28 41.33 550.56 41.30
  Q 558.84 41.27 561.36 42.07
  C 569.90 44.80 575.77 52.39 575.88 61.52
  Q 576.16 82.34 575.78 103.22
  A 2.24 2.23 0.4 0 1 573.55 105.41
  Q 565.85 105.44 477.23 105.42
  Q 394.65 105.40 334.52 105.40
  Q 319.76 105.39 305.80 105.40
  Q 291.83 105.40 277.07 105.41
  Q 216.94 105.43 134.36 105.48
  Q 45.74 105.53 38.04 105.51
  A 2.24 2.23 -0.4 0 1 35.81 103.32
  Q 35.42 82.44 35.70 61.62
  C 35.80 52.49 41.67 44.90 50.21 42.16
  Q 52.73 41.36 61.01 41.39
  Q 69.29 41.41 305.78 41.37
  Z
  M 305.72 104.08
  Q 569.83 104.10 574.03 104.11
  A 0.52 0.52 0.0 0 0 574.56 103.59
  Q 574.54 90.21 574.61 70.60
  Q 574.65 58.49 573.87 55.98
  C 571.75 49.22 565.28 43.13 557.76 42.91
  Q 551.17 42.72 543.00 42.74
  Q 515.87 42.81 305.73 42.79
  Q 95.59 42.78 68.45 42.72
  Q 60.28 42.69 53.69 42.88
  C 46.17 43.10 39.70 49.19 37.58 55.95
  Q 36.80 58.46 36.84 70.57
  Q 36.91 90.18 36.89 103.56
  A 0.52 0.52 0.0 0 0 37.41 104.08
  Q 41.62 104.06 305.72 104.08
  Z"
/>
<path fill="#ddeffa" d="
  M 305.73 42.79
  Q 515.87 42.81 543.00 42.74
  Q 551.17 42.72 557.76 42.91
  C 565.28 43.13 571.75 49.22 573.87 55.98
  Q 574.65 58.49 574.61 70.60
  Q 574.54 90.21 574.56 103.59
  A 0.52 0.52 0.0 0 1 574.03 104.11
  Q 569.83 104.10 305.72 104.08
  Q 41.62 104.06 37.41 104.08
  A 0.52 0.52 0.0 0 1 36.89 103.56
  Q 36.91 90.18 36.84 70.57
  Q 36.80 58.46 37.58 55.95
  C 39.70 49.19 46.17 43.10 53.69 42.88
  Q 60.28 42.69 68.45 42.72
  Q 95.59 42.78 305.73 42.79
  Z
  M 89.83 74.41
  A 12.84 12.84 0.0 0 0 76.99 61.57
  A 12.84 12.84 0.0 0 0 64.15 74.41
  A 12.84 12.84 0.0 0 0 76.99 87.25
  A 12.84 12.84 0.0 0 0 89.83 74.41
  Z
  M 134.41 74.30
  A 12.76 12.76 0.0 0 0 121.65 61.54
  A 12.76 12.76 0.0 0 0 108.89 74.30
  A 12.76 12.76 0.0 0 0 121.65 87.06
  A 12.76 12.76 0.0 0 0 134.41 74.30
  Z
  M 180.00 74.47
  A 13.09 13.09 0.0 0 0 166.91 61.38
  A 13.09 13.09 0.0 0 0 153.82 74.47
  A 13.09 13.09 0.0 0 0 166.91 87.56
  A 13.09 13.09 0.0 0 0 180.00 74.47
  Z"
/>
<circle fill="#13add2" cx="76.99" cy="74.41" r="12.84"/>
<circle fill="#13add2" cx="121.65" cy="74.30" r="12.76"/>
<path fill="#061219" d="
  M 180.00 74.47
  A 13.09 13.09 0.0 0 1 166.91 87.56
  A 13.09 13.09 0.0 0 1 153.82 74.47
  A 13.09 13.09 0.0 0 1 166.91 61.38
  A 13.09 13.09 0.0 0 1 180.00 74.47
  Z
  M 178.91 74.49
  A 12.02 12.02 0.0 0 0 166.89 62.47
  A 12.02 12.02 0.0 0 0 154.87 74.49
  A 12.02 12.02 0.0 0 0 166.89 86.51
  A 12.02 12.02 0.0 0 0 178.91 74.49
  Z"
/>
<circle fill="#294f64" fill-opacity="0.996" cx="166.89" cy="74.49" r="12.02"/>
<path fill="#294f64" fill-opacity="0.996" d="
  M 23.68 366.18
  Q 23.20 362.75 23.19 355.25
  Q 23.12 212.75 23.19 70.25
  Q 23.19 68.47 23.67 67.84
  L 23.68 366.18
  Z"
/>
<path fill="#294f64" fill-opacity="0.996" d="
  M 575.04 357.84
  L 575.05 115.98
  Q 575.00 115.69 575.38 115.49
  A 0.29 0.29 0.0 0 1 575.81 115.75
  L 575.81 357.66
  A 0.23 0.21 83.6 0 1 575.65 357.88
  Q 575.38 357.95 575.04 357.84
  Z"
/>
<path fill="#3cadea" d="
  M 68.95 264.54
  L 68.94 263.54
  L 68.93 258.29
  Q 69.09 257.54 68.90 256.79
  L 68.91 226.04
  Q 69.11 225.48 68.91 224.96
  L 68.88 176.04
  Q 69.02 175.33 68.89 174.71
  L 68.98 170.31
  Q 69.26 168.83 68.95 167.46
  L 69.18 159.13
  A 1.49 1.47 -34.3 0 1 69.29 158.57
  C 72.38 151.12 79.97 152.04 87.75 152.05
  Q 191.56 152.15 213.96 152.07
  A 2.85 2.60 -35.1 0 1 214.66 152.16
  Q 223.27 154.59 223.27 164.20
  Q 223.28 200.02 223.34 266.35
  Q 223.35 274.85 222.76 276.52
  Q 221.02 281.41 215.79 282.84
  A 3.79 3.65 36.6 0 1 214.85 282.96
  L 77.45 282.96
  A 2.66 2.65 53.9 0 1 76.63 282.83
  Q 71.47 281.08 69.31 276.61
  A 2.10 2.02 33.3 0 1 69.13 275.82
  L 68.95 264.54
  Z"
/>
<path fill="#061219" d="
  M 341.95 157.06
  Q 343.36 157.43 344.79 157.08
  Q 437.77 157.08 530.75 157.06
  Q 534.39 157.06 536.24 158.04
  Q 545.33 162.86 543.67 173.21
  A 4.10 3.75 -32.1 0 1 543.42 174.11
  Q 539.80 183.38 528.50 183.39
  Q 351.95 183.47 269.31 183.41
  Q 266.84 183.41 264.50 183.12
  C 257.70 182.29 252.75 176.72 252.82 169.93
  Q 252.89 162.37 260.04 158.31
  Q 261.76 157.33 264.00 157.31
  Q 302.98 157.09 341.95 157.06
  Z
  M 542.68 169.80
  A 11.18 11.18 0.0 0 0 531.50 158.62
  L 265.44 158.62
  A 11.18 11.18 0.0 0 0 254.26 169.80
  L 254.26 170.62
  A 11.18 11.18 0.0 0 0 265.44 181.80
  L 531.50 181.80
  A 11.18 11.18 0.0 0 0 542.68 170.62
  L 542.68 169.80
  Z"
/>
<path fill="#294f64" fill-opacity="0.996" d="
  M 344.79 157.08
  Q 343.36 157.43 341.95 157.06
  L 344.79 157.08
  Z"
/>
<rect fill="#294f64" fill-opacity="0.996" x="254.26" y="158.62" width="288.42" height="23.18" rx="11.18"/>
<path fill="#13add2" d="
  M 68.95 167.46
  Q 69.26 168.83 68.98 170.31
  Q 68.69 168.93 68.95 167.46
  Z"
/>
<path fill="#13add2" d="
  M 68.89 174.71
  Q 69.02 175.33 68.88 176.04
  L 68.89 174.71
  Z"
/>
<rect fill="#13add2" x="253.26" y="213.13" width="234.54" height="16.82" rx="8.35"/>
<path fill="#294f64" fill-opacity="0.996" d="
  M 68.91 224.96
  Q 69.11 225.48 68.91 226.04
  L 68.91 224.96
  Z"
/>
<rect fill="#ddeffa" x="253.75" y="251.86" width="196.54" height="17.92" rx="8.87"/>
<path fill="#294f64" fill-opacity="0.996" d="
  M 68.90 256.79
  Q 69.09 257.54 68.93 258.29
  Q 68.80 257.54 68.90 256.79
  Z"
/>
<path fill="#061219" d="
  M 68.94 263.54
  L 68.95 264.54
  Q 68.78 264.03 68.94 263.54
  Z"
/>
<path fill="#3cadea" d="
  M 256.10 478.51
  Q 249.66 473.42 253.60 466.87
  C 272.73 435.08 290.00 406.73 305.22 381.68
  Q 336.82 329.65 341.94 320.95
  C 344.28 316.97 346.47 314.95 351.07 314.91
  Q 357.55 314.86 358.99 315.09
  C 366.12 316.19 367.53 323.08 364.33 328.82
  Q 341.61 369.44 322.64 401.66
  Q 287.51 461.34 280.60 473.37
  C 277.95 477.99 274.04 480.13 268.56 480.10
  C 263.54 480.08 260.49 480.22 256.92 478.96
  A 2.63 2.60 73.4 0 1 256.10 478.51
  Z"
/>
<path fill="#061219" d="
  M 449.42 414.11
  Q 442.54 407.69 432.63 399.26
  C 419.41 388.01 405.87 375.86 392.43 364.11
  Q 386.54 358.96 391.22 352.54
  C 393.39 349.57 397.36 346.28 401.43 347.30
  Q 403.78 347.88 407.65 351.22
  Q 435.14 374.92 461.88 397.81
  Q 463.45 399.16 469.74 404.32
  Q 475.31 408.90 477.22 411.15
  Q 480.91 415.52 477.68 420.89
  Q 476.60 422.67 470.94 427.18
  Q 453.88 440.78 409.74 476.25
  Q 409.43 476.50 405.16 479.38
  A 2.39 2.38 21.5 0 1 404.33 479.74
  Q 399.50 480.89 395.51 478.75
  Q 394.85 478.40 392.06 475.68
  C 388.70 472.40 388.62 467.74 391.88 464.42
  Q 394.11 462.15 398.21 458.96
  Q 400.70 457.02 445.37 421.87
  C 447.29 420.36 450.76 418.15 449.95 415.01
  A 1.82 1.81 -75.6 0 0 449.42 414.11
  Z
  M 477.74 417.60
  Q 478.39 414.29 475.89 411.81
  C 469.39 405.35 462.09 399.99 454.79 393.62
  C 446.66 386.53 439.13 379.70 431.18 373.05
  Q 426.84 369.42 421.70 364.87
  Q 416.64 360.39 406.33 351.76
  Q 404.58 350.30 402.12 348.91
  A 4.35 4.35 0.0 0 0 398.68 348.54
  Q 390.80 350.99 391.06 359.17
  A 2.40 2.32 -58.7 0 0 391.27 360.10
  Q 392.17 362.14 393.47 363.30
  Q 404.59 373.18 419.47 386.15
  Q 425.67 391.55 429.06 394.38
  Q 435.60 399.83 438.83 402.77
  Q 445.49 408.85 447.72 410.32
  C 451.46 412.79 452.57 416.49 449.90 420.06
  A 1.68 1.63 89.2 0 1 449.57 420.41
  Q 424.77 439.98 402.77 457.02
  Q 397.75 460.91 394.60 463.57
  Q 390.12 467.33 391.07 471.54
  A 4.05 3.94 -65.3 0 0 391.42 472.53
  C 393.85 477.38 400.44 480.85 405.46 477.68
  C 410.70 474.39 414.21 470.94 420.16 466.38
  Q 427.70 460.60 437.98 451.88
  C 448.22 443.20 462.19 432.57 469.34 426.85
  Q 476.19 421.36 477.44 418.56
  A 4.47 3.89 -31.6 0 0 477.74 417.60
  Z"
/>
<path fill="#061219" d="
  M 234.20 361.54
  Q 233.52 363.16 232.19 364.47
  Q 222.66 373.80 211.93 382.68
  C 210.35 383.98 208.38 386.20 206.44 387.86
  Q 181.93 408.97 177.25 412.93
  C 173.88 415.78 171.50 418.95 175.80 422.34
  Q 206.58 446.64 227.81 463.83
  Q 231.96 467.19 230.48 472.53
  Q 229.58 475.75 225.82 478.40
  C 221.05 481.76 215.92 480.22 211.94 476.54
  Q 209.25 474.05 207.85 473.00
  Q 191.39 460.68 149.24 426.75
  Q 143.33 421.99 145.35 415.12
  C 145.67 414.02 147.21 412.23 148.25 411.29
  Q 152.08 407.82 158.69 402.17
  Q 174.18 388.93 179.35 384.59
  Q 192.66 373.44 218.15 351.26
  C 222.11 347.81 225.23 346.36 229.85 349.49
  Q 237.15 354.43 234.20 361.54
  Z
  M 173.66 414.16
  C 179.89 409.26 185.64 403.56 191.62 398.60
  C 203.42 388.83 217.79 375.63 225.69 368.68
  Q 231.02 363.99 232.03 362.52
  Q 233.62 360.23 233.59 357.22
  C 233.53 352.54 227.78 349.16 223.73 349.28
  A 2.40 2.40 0.0 0 0 222.71 349.55
  Q 219.88 351.05 217.68 353.26
  C 212.55 358.43 206.52 363.19 204.08 365.60
  Q 202.69 366.98 199.98 368.88
  C 196.96 370.99 193.58 374.47 190.98 376.69
  Q 153.60 408.48 149.27 412.23
  Q 143.18 417.51 148.07 423.84
  A 2.90 2.90 0.0 0 0 148.42 424.19
  Q 153.24 428.02 180.47 449.89
  Q 191.33 458.61 197.35 462.98
  Q 204.78 468.37 214.63 476.85
  Q 217.27 479.12 219.94 478.90
  Q 227.60 478.24 229.27 471.03
  C 230.11 467.40 226.75 464.44 224.11 462.44
  Q 212.16 453.38 203.27 446.00
  Q 196.68 440.53 191.15 436.34
  Q 182.90 430.10 178.89 426.59
  C 175.50 423.62 169.16 420.54 173.22 414.62
  A 2.17 1.92 -4.7 0 1 173.66 414.16
  Z"
/>
<path fill="#294f64" fill-opacity="0.996" d="
  M 477.44 418.56
  Q 476.19 421.36 469.34 426.85
  C 462.19 432.57 448.22 443.20 437.98 451.88
  Q 427.70 460.60 420.16 466.38
  C 414.21 470.94 410.70 474.39 405.46 477.68
  C 400.44 480.85 393.85 477.38 391.42 472.53
  A 4.05 3.94 -65.3 0 1 391.07 471.54
  Q 390.12 467.33 394.60 463.57
  Q 397.75 460.91 402.77 457.02
  Q 424.77 439.98 449.57 420.41
  A 1.68 1.63 89.2 0 0 449.90 420.06
  C 452.57 416.49 451.46 412.79 447.72 410.32
  Q 445.49 408.85 438.83 402.77
  Q 435.60 399.83 429.06 394.38
  Q 425.67 391.55 419.47 386.15
  Q 404.59 373.18 393.47 363.30
  Q 392.17 362.14 391.27 360.10
  A 2.40 2.32 -58.7 0 1 391.06 359.17
  Q 390.80 350.99 398.68 348.54
  A 4.35 4.35 0.0 0 1 402.12 348.91
  Q 404.58 350.30 406.33 351.76
  Q 416.64 360.39 421.70 364.87
  Q 426.84 369.42 431.18 373.05
  C 439.13 379.70 446.66 386.53 454.79 393.62
  C 462.09 399.99 469.39 405.35 475.89 411.81
  Q 478.39 414.29 477.74 417.60
  A 4.47 3.89 -31.6 0 1 477.44 418.56
  Z"
/>
<path fill="#294f64" fill-opacity="0.996" d="
  M 173.22 414.62
  C 169.16 420.54 175.50 423.62 178.89 426.59
  Q 182.90 430.10 191.15 436.34
  Q 196.68 440.53 203.27 446.00
  Q 212.16 453.38 224.11 462.44
  C 226.75 464.44 230.11 467.40 229.27 471.03
  Q 227.60 478.24 219.94 478.90
  Q 217.27 479.12 214.63 476.85
  Q 204.78 468.37 197.35 462.98
  Q 191.33 458.61 180.47 449.89
  Q 153.24 428.02 148.42 424.19
  A 2.90 2.90 0.0 0 1 148.07 423.84
  Q 143.18 417.51 149.27 412.23
  Q 153.60 408.48 190.98 376.69
  C 193.58 374.47 196.96 370.99 199.98 368.88
  Q 202.69 366.98 204.08 365.60
  C 206.52 363.19 212.55 358.43 217.68 353.26
  Q 219.88 351.05 222.71 349.55
  A 2.40 2.40 0.0 0 1 223.73 349.28
  C 227.78 349.16 233.53 352.54 233.59 357.22
  Q 233.62 360.23 232.03 362.52
  Q 231.02 363.99 225.69 368.68
  C 217.79 375.63 203.42 388.83 191.62 398.60
  C 185.64 403.56 179.89 409.26 173.66 414.16
  A 2.17 1.92 -4.7 0 0 173.22 414.62
  Z"
/>
</svg>
